<svg xmlns="http://www.w3.org/2000/svg" viewBox="0 0 24 24" width="24" height="24" aria-labelledby="alter_platz-title" role="img">
  <title>Alter Platz</title>
  <path d="M 2.3448,20.6207 l 19.3103,0 l 0,1.3793 L 2.3448,22 z M 17.8621,8.8966 L 6.4828,8.8966 a 1.3807,1.3807 0 0,0 -1.3793,1.3793 l 0,5.5172 a 3.4524,3.4524 0 0,0 3.4483,3.4483 l 5.5172,0 a 3.4524,3.4524 0 0,0 3.4483,-3.4483 l 0,-0.6897 l 0.3448,0 a 3.1035,3.1035 0 0,0 0,-6.2069 z M 16.1379,15.7931 a 2.071,2.071 0 0,1 -2.069,2.069 l -5.5172,0 a 2.071,2.071 0 0,1 -2.069,-2.069 l 0,-5.5172 l 9.6552,0 z M 17.8621,13.7241 L 17.5172,13.7241 l 0,-3.4483 l 0.3448,0 a 1.7241,1.7241 0 0,1 0,3.4483 z M 14.069,7.5172 l -1.3793,0 l 0,-0.1007 a 1.371,1.371 0 0,0 -0.7621,-1.2338 L 10.0759,5.2579 A 2.7441,2.7441 0 0,1 8.5517,2.7903 L 8.5517,2 l 1.3793,0 l 0,0.7903 a 1.3724,1.3724 0 0,0 0.7621,1.2338 l 1.851,0.9248 A 2.7448,2.7448 0 0,1 14.069,7.4166 z" fill="#000000" stroke="#000000" stroke-width="0.45" stroke-linecap="round" stroke-linejoin="round" vector-effect="non-scaling-stroke" paint-order="stroke fill" />
</svg>
