<svg xmlns="http://www.w3.org/2000/svg" viewBox="0 0 24 24" width="24" height="24" aria-labelledby="benedektiner-title" role="img">
  <title>Benedektiner</title>
  <path d="M 11.1667,14.2222 a 0.8333,0.8333 0 0,1 0,-1.6667 a 0.8333,0.8333 0 0,1 0,1.6667 Z" fill="#000000" stroke="#000000" stroke-width="0.45" stroke-linecap="round" stroke-linejoin="round" vector-effect="non-scaling-stroke" paint-order="stroke fill" />
  <path d="M 3.905,9.7778 c 0.1078,0 0.2139,-0.0089 0.3172,-0.0267 L 4.2222,14.2222 L 2.8333,14.2222 a 0.2778,0.2778 0 0,0 -0.2778,0.2778 l 0,0.5556 a 0.2778,0.2778 0 0,0 0.2778,0.2778 l 18.3333,0 a 0.2778,0.2778 0 0,0 0.2778,-0.2778 l 0,-0.5556 a 0.2778,0.2778 0 0,0 -0.2778,-0.2778 L 19.7778,14.2222 l 0,-4.4711 c 0.1033,0.0178 0.2094,0.0267 0.3172,0.0267 C 21.1517,9.7778 22,8.9156 22,7.8617 l 0,-1.3278 a 1.5167,1.5167 0 0,0 -0.0906,-0.5167 l -1.2111,-3.3389 A 1.0278,1.0278 0 0,0 19.7317,2 L 4.2678,2 a 1.0278,1.0278 0 0,0 -0.9656,0.6789 l -1.2111,3.3383 a 1.5156,1.5156 0 0,0 -0.0911,0.5167 l 0,1.3278 C 2,8.9156 2.8483,9.7778 3.905,9.7778 Z M 3.1356,6.3961 L 4.3272,3.1111 L 19.6722,3.1111 l 1.1917,3.285 c 0.0167,0.0444 0.0244,0.0906 0.0244,0.1378 l 0,1.3278 A 0.8,0.8 0 0,1 20.0944,8.6667 c -0.4333,0 -0.7933,-0.3556 -0.7933,-0.805 a 0.5556,0.5556 0 0,0 -1.1111,0 A 0.8,0.8 0 0,1 17.3961,8.6667 c -0.4333,0 -0.7933,-0.3556 -0.7933,-0.8044 a 0.5556,0.5556 0 0,0 -1.1111,0 c 0,0.4489 -0.36,0.8044 -0.7939,0.8044 s -0.7933,-0.3556 -0.7933,-0.805 a 0.5556,0.5556 0 0,0 -1.1111,0 A 0.7994,0.7994 0 0,1 12,8.6667 a 0.8,0.8 0 0,1 -0.7939,-0.8044 a 0.5556,0.5556 0 0,0 -1.1111,0 c 0,0.4489 -0.3594,0.8044 -0.7933,0.8044 c -0.4339,0 -0.7939,-0.3556 -0.7939,-0.805 a 0.5556,0.5556 0 0,0 -1.1111,0 c 0,0.4489 -0.3594,0.805 -0.7933,0.805 c -0.4339,0 -0.7939,-0.3556 -0.7939,-0.805 a 0.5556,0.5556 0 0,0 -1.1111,0 c 0,0.4489 -0.3594,0.805 -0.7933,0.805 C 3.4706,8.6667 3.1111,8.3111 3.1111,7.8617 l 0,-1.3278 a 0.4,0.4 0 0,1 0.0244,-0.1378 Z M 18.6667,9.29 a 1.8894,1.8894 0 0,1 -1.27,0.4878 a 1.8911,1.8911 0 0,1 -1.3489,-0.5633 A 1.8911,1.8911 0 0,1 14.6983,9.7778 a 1.8911,1.8911 0 0,1 -1.3489,-0.5633 A 1.8911,1.8911 0 0,1 12,9.7778 a 1.8911,1.8911 0 0,1 -1.3494,-0.5633 A 1.8911,1.8911 0 0,1 9.3017,9.7778 c -0.5283,0 -1.0056,-0.2161 -1.3494,-0.5633 A 1.8911,1.8911 0 0,1 6.6033,9.7778 c -0.4889,0 -0.9333,-0.185 -1.27,-0.4878 L 5.3333,14.2222 l 1.3889,0 a 0.2778,0.2778 0 0,1 -0.2778,-0.2778 l 0,-1.1111 a 0.2778,0.2778 0 0,1 0.2778,-0.2778 l 1.6667,0 a 0.2778,0.2778 0 0,1 0.2778,0.2778 l 0,0.2778 l 0.8333,0 a 0.2778,0.2778 0 0,1 0.2778,0.2778 l 0,0.5556 a 0.2778,0.2778 0 0,1 -0.2778,0.2778 L 18.6667,14.2222 l 0,-4.9322 Z M 3.1111,17 a 0.5556,0.5556 0 0,1 0.5556,-0.5556 l 16.6667,0 a 0.5556,0.5556 0 0,1 0.5556,0.5556 l 0,4.4444 a 0.5556,0.5556 0 0,1 -0.5556,0.5556 L 3.6667,22 a 0.5556,0.5556 0 0,1 -0.5556,-0.5556 l 0,-4.4444 Z M 4.2222,20.8889 l 0,-3.3333 l 15.5556,0 l 0,3.3333 L 4.2222,20.8889 Z" fill="#000000" stroke="#000000" stroke-width="0.45" stroke-linecap="round" stroke-linejoin="round" vector-effect="non-scaling-stroke" paint-order="stroke fill" fill-rule="evenodd" />
</svg>
