<svg xmlns="http://www.w3.org/2000/svg" viewBox="0 0 24 24" width="24" height="24" aria-labelledby="botanischer_garten-title" role="img">
  <title>Botanischer Garten</title>
  <path d="M 21.3043,18.7609 c -0.0652,-0.0435 -0.1304,-0.087 -0.2174,-0.1304 c -0.0652,-0.0435 -0.1739,-0.1522 -0.2609,-0.2609 c -0.1739,-0.1957 -0.3696,-0.413 -0.6522,-0.5217 c -0.1957,-0.0652 -0.413,-0.0435 -0.6087,-0.0217 c -0.1522,0.0217 -0.3043,0.0435 -0.4348,0.0217 c -0.0652,-0.0217 -0.1304,-0.0435 -0.1957,-0.087 L 18.9348,14.4783 l 0.7391,-0.7391 c 0.2391,-0.0217 1.1739,-0.1739 1.587,-1.0435 c 0.4565,-0.913 0.2174,-2.413 0.1957,-2.4783 c -0.0217,-0.0652 -0.0652,-0.1304 -0.1087,-0.1522 c -0.0652,-0.0217 -0.1304,-0.0217 -0.1957,0 c -0.0652,0.0217 -1.3913,0.7391 -1.8478,1.6522 c -0.3696,0.7174 -0.1304,1.4348 0.0217,1.7391 L 18.9565,13.8696 L 18.9565,10.6522 c 0.3478,-0.1522 0.5652,-0.6304 0.6522,-1.1087 c 0.3043,0.2174 0.6739,0.3696 0.9783,0.3696 c 0.1739,0 0.3261,-0.0435 0.4565,-0.1739 c 0,0 0,0 0,0 c 0.3261,-0.3261 0.1304,-0.9565 -0.1957,-1.4348 c 0.5652,-0.1087 1.1522,-0.413 1.1522,-0.8696 c 0,-0.4565 -0.587,-0.7609 -1.1522,-0.8696 c 0.3261,-0.4783 0.5217,-1.1087 0.1957,-1.4348 c -0.3261,-0.3261 -0.9565,-0.1304 -1.4348,0.1957 c -0.1087,-0.5652 -0.413,-1.1522 -0.8696,-1.1522 s -0.7609,0.587 -0.8696,1.1522 c -0.4783,-0.3261 -1.1087,-0.5217 -1.4348,-0.1957 c -0.3261,0.3261 -0.1304,0.9565 0.1957,1.4348 c -0.5652,0.1087 -1.1522,0.413 -1.1522,0.8696 s 0.587,0.7609 1.1522,0.8696 c -0.3261,0.4783 -0.5217,1.1087 -0.1957,1.4348 c 0.1087,0.1087 0.2826,0.1739 0.4565,0.1739 c 0.3043,0 0.6739,-0.1522 0.9783,-0.3696 c 0.087,0.4783 0.3043,0.9565 0.6522,1.1087 l 0,4.3043 l -0.3913,-0.3913 c 0.1522,-0.3261 0.3696,-1.0217 0.0217,-1.7391 c -0.4565,-0.913 -1.7826,-1.6304 -1.8478,-1.6522 c -0.0652,-0.0217 -0.1304,-0.0435 -0.1957,0 c -0.0652,0.0217 -0.1087,0.087 -0.1087,0.1522 c 0,0.0652 -0.2391,1.5652 0.1957,2.4783 c 0.4348,0.8478 1.3696,1 1.587,1.0435 l 0.7391,0.7391 l 0,1.913 c -0.1087,-0.0652 -0.2391,-0.1087 -0.3478,-0.1304 c -0.2174,-0.0217 -0.413,0.0435 -0.6087,0.1087 c -0.1522,0.0435 -0.3043,0.1087 -0.413,0.087 c -0.1087,0 -0.2391,-0.0652 -0.3913,-0.1522 C 16.5652,17.3261 16.3696,17.2174 16.1304,17.2174 c -0.2391,0 -0.4348,0.1087 -0.6304,0.1957 c -0.1304,0.0652 -0.2826,0.1304 -0.3913,0.1522 c -0.1304,0 -0.2609,-0.0435 -0.413,-0.087 c -0.1957,-0.0652 -0.3913,-0.1304 -0.6087,-0.1087 c -0.2391,0.0435 -0.4348,0.1739 -0.6304,0.3043 c -0.1304,0.087 -0.2609,0.1739 -0.3478,0.1957 c -0.1304,0.0217 -0.2826,0 -0.4348,-0.0217 c -0.1522,-0.0217 -0.3043,-0.0435 -0.4565,-0.0217 L 12.2174,14.4783 l 0.7391,-0.7391 c 0.2391,-0.0217 1.1739,-0.1739 1.587,-1.0435 c 0.4565,-0.913 0.2174,-2.413 0.1957,-2.4783 c -0.0217,-0.0652 -0.0652,-0.1304 -0.1087,-0.1522 c -0.0652,-0.0217 -0.1304,-0.0217 -0.1957,0 c -0.0652,0.0217 -1.3913,0.7391 -1.8478,1.6522 c -0.3696,0.7174 -0.1304,1.4348 0.0217,1.7391 L 12.2174,13.8696 L 12.2174,10.6522 c 0.3478,-0.1522 0.5652,-0.6304 0.6522,-1.1087 c 0.3043,0.2174 0.6739,0.3696 0.9783,0.3696 c 0.1739,0 0.3261,-0.0435 0.4565,-0.1739 c 0,0 0,0 0,0 c 0.3261,-0.3261 0.1304,-0.9565 -0.1957,-1.4348 c 0.5652,-0.1087 1.1522,-0.413 1.1522,-0.8696 c 0,-0.4565 -0.587,-0.7609 -1.1522,-0.8696 c 0.3261,-0.4783 0.5217,-1.1087 0.1957,-1.4348 c -0.3261,-0.3261 -0.9565,-0.1304 -1.4348,0.1957 c -0.1087,-0.5652 -0.413,-1.1522 -0.8696,-1.1522 s -0.7609,0.587 -0.8696,1.1522 c -0.4783,-0.3261 -1.1087,-0.5217 -1.4348,-0.1957 c -0.3261,0.3261 -0.1304,0.9565 0.1957,1.4348 c -0.5652,0.1087 -1.1522,0.413 -1.1522,0.8696 s 0.587,0.7609 1.1522,0.8696 c -0.3261,0.4783 -0.5217,1.1087 -0.1957,1.4348 c 0.1087,0.1087 0.2826,0.1739 0.4565,0.1739 c 0.3043,0 0.6739,-0.1522 0.9783,-0.3696 c 0.087,0.4783 0.3043,0.9565 0.6522,1.1087 l 0,4.3043 l -0.3913,-0.3913 c 0.1522,-0.3261 0.3696,-1.0217 0.0217,-1.7391 c -0.4565,-0.913 -1.7826,-1.6304 -1.8478,-1.6522 c -0.0652,-0.0217 -0.1304,-0.0435 -0.1957,0 c -0.0652,0.0217 -0.1087,0.087 -0.1087,0.1522 c 0,0.0652 -0.2391,1.5652 0.1957,2.4783 c 0.4348,0.8478 1.3696,1 1.587,1.0435 l 0.7391,0.7391 l 0,2.2391 c -0.1522,-0.0217 -0.3043,0 -0.4565,0.0217 c -0.1522,0.0217 -0.3043,0.0435 -0.4348,0.0217 c -0.1087,-0.0217 -0.2174,-0.1087 -0.3478,-0.1957 c -0.1739,-0.1304 -0.3913,-0.2609 -0.6304,-0.2826 c -0.2174,-0.0217 -0.413,0.0435 -0.6087,0.1087 c -0.1522,0.0435 -0.3043,0.1087 -0.413,0.087 c -0.1087,0 -0.2391,-0.0652 -0.3913,-0.1522 C 8.3043,17.3261 8.1087,17.2174 7.8696,17.2174 s -0.4348,0.1087 -0.6304,0.1957 c -0.1304,0.0652 -0.2826,0.1304 -0.3913,0.1522 c -0.1304,0 -0.2609,-0.0435 -0.413,-0.087 c -0.1957,-0.0652 -0.3913,-0.1304 -0.6087,-0.1087 c -0.1304,0.0217 -0.2391,0.0652 -0.3478,0.1304 L 5.4783,14.4783 l 0.7391,-0.7391 c 0.2391,-0.0217 1.1739,-0.1739 1.587,-1.0435 c 0.4565,-0.913 0.2174,-2.413 0.1957,-2.4783 c -0.0217,-0.0652 -0.0652,-0.1304 -0.1087,-0.1522 c -0.0652,-0.0217 -0.1304,-0.0217 -0.1957,0 c -0.0652,0.0217 -1.3913,0.7391 -1.8478,1.6522 c -0.3696,0.7174 -0.1304,1.4348 0.0217,1.7391 L 5.4783,13.8696 L 5.4783,10.6522 c 0.3478,-0.1522 0.5652,-0.6304 0.6522,-1.1087 c 0.3043,0.2174 0.6739,0.3696 0.9783,0.3696 c 0.1739,0 0.3261,-0.0435 0.4565,-0.1739 c 0,0 0,0 0,0 c 0.3261,-0.3261 0.1304,-0.9565 -0.1957,-1.4348 c 0.5652,-0.1087 1.1522,-0.413 1.1522,-0.8696 c 0,-0.4565 -0.587,-0.7609 -1.1522,-0.8696 c 0.3261,-0.4783 0.5217,-1.1087 0.1957,-1.4348 c -0.3261,-0.3261 -0.9565,-0.1304 -1.4348,0.1957 c -0.1087,-0.5652 -0.413,-1.1522 -0.8696,-1.1522 c -0.4565,0 -0.7609,0.587 -0.8696,1.1522 c -0.4783,-0.3261 -1.1087,-0.5217 -1.4348,-0.1957 c -0.3261,0.3261 -0.1304,0.9565 0.1957,1.4348 C 2.587,6.6739 2,6.9783 2,7.4348 s 0.587,0.7609 1.1522,0.8696 c -0.3261,0.4783 -0.5217,1.1087 -0.1957,1.4348 c 0.1087,0.1087 0.2826,0.1739 0.4565,0.1739 c 0.3043,0 0.6739,-0.1522 0.9783,-0.3696 c 0.087,0.4783 0.3043,0.9565 0.6522,1.1087 l 0,4.3043 l -0.3913,-0.3913 c 0.1522,-0.3261 0.3696,-1.0217 0.0217,-1.7391 c -0.4565,-0.913 -1.7826,-1.6304 -1.8478,-1.6522 c -0.0652,-0.0217 -0.1304,-0.0435 -0.1957,0 c -0.0652,0.0217 -0.1087,0.087 -0.1087,0.1522 c 0,0.0652 -0.2391,1.5652 0.1957,2.4783 c 0.4348,0.8478 1.3696,1 1.587,1.0435 l 0.7391,0.7391 l 0,2.1957 c -0.0652,0.0435 -0.1304,0.0652 -0.1957,0.087 c -0.1304,0.0217 -0.2826,0 -0.4348,-0.0217 c -0.1957,-0.0217 -0.413,-0.0652 -0.6087,0.0217 c -0.2826,0.1087 -0.4783,0.3261 -0.6522,0.5217 c -0.087,0.1087 -0.1739,0.1957 -0.2609,0.2609 c -0.0652,0.0435 -0.1304,0.087 -0.1957,0.1304 C 2.3478,18.9783 2,19.1957 2,19.6087 c 0,0.1304 0.087,0.2174 0.2174,0.2174 l 8.2609,0 l 3.0435,0 l 8.2609,0 c 0.1304,0 0.2174,-0.087 0.2174,-0.2174 C 22,19.2174 21.6522,18.9783 21.3043,18.7609 z M 19.7391,11.913 c 0.2826,-0.5652 0.9783,-1.0435 1.3696,-1.3043 c 0.0435,0.4565 0.0652,1.3261 -0.1957,1.8913 c -0.2826,0.5652 -0.8696,0.7391 -1.1522,0.7826 C 19.6304,13.0435 19.4565,12.4783 19.7391,11.913 z M 16.587,13.587 c -0.2826,-0.5652 -0.2391,-1.4348 -0.1957,-1.8913 c 0.3913,0.2391 1.1087,0.7391 1.3696,1.3043 c 0.2826,0.5652 0.087,1.1304 -0.0217,1.3696 C 17.4565,14.3261 16.8696,14.1739 16.587,13.587 z M 13,11.913 c 0.2826,-0.5652 0.9783,-1.0435 1.3696,-1.3043 c 0.0435,0.4565 0.0652,1.3261 -0.1957,1.8913 c -0.2826,0.5652 -0.8696,0.7391 -1.1522,0.7826 C 12.8913,13.0435 12.7174,12.4783 13,11.913 z M 9.8478,13.587 c -0.2826,-0.5652 -0.2391,-1.4348 -0.1957,-1.8913 c 0.3913,0.2391 1.1087,0.7391 1.3696,1.3043 c 0.2826,0.5652 0.087,1.1304 -0.0217,1.3696 C 10.7174,14.3261 10.1304,14.1739 9.8478,13.587 z M 6.2609,11.913 c 0.2826,-0.5652 0.9783,-1.0435 1.3696,-1.3043 c 0.0435,0.4565 0.0652,1.3261 -0.1957,1.8913 c -0.2826,0.5652 -0.8696,0.7391 -1.1522,0.7826 C 6.1522,13.0435 5.9783,12.4783 6.2609,11.913 z M 3.1087,13.587 c -0.2826,-0.5652 -0.2391,-1.4348 -0.1957,-1.8913 c 0.3913,0.2391 1.1087,0.7391 1.3696,1.3043 c 0.2826,0.5652 0.087,1.1304 -0.0217,1.3696 C 3.9783,14.3261 3.3913,14.1739 3.1087,13.587 z M 19.0435,8.087 c -0.0217,0.0217 -0.0435,0.0217 -0.0652,0.0217 c -0.1522,0.0435 -0.3043,0.0435 -0.4783,0 c -0.0217,0 -0.0435,-0.0217 -0.0652,-0.0217 c 0,0 0,0 0,0 c 0,0 0,0 0,0 c -0.1522,-0.0652 -0.2609,-0.1739 -0.3261,-0.3261 c 0,0 0,0 0,0 c 0,0 0,0 0,0 c -0.0217,-0.0217 -0.0217,-0.0435 -0.0217,-0.0652 c 0,0 0,0 0,0 c -0.0217,-0.087 -0.0435,-0.1522 -0.0435,-0.2391 s 0.0217,-0.1522 0.0435,-0.2391 c 0,-0.0217 0.0217,-0.0435 0.0217,-0.0652 c 0,0 0,0 0,0 c 0,0 0,0 0,0 c 0.0652,-0.1522 0.1739,-0.2609 0.3261,-0.3261 c 0,0 0,0 0,0 c 0,0 0,0 0,0 c 0.0217,-0.0217 0.0435,-0.0217 0.0652,-0.0217 c 0.1522,-0.0435 0.3043,-0.0435 0.4783,0 c 0.0217,0 0.0435,0.0217 0.0652,0.0217 c 0,0 0,0 0,0 c 0,0 0,0 0,0 c 0.1522,0.0652 0.2609,0.1739 0.3261,0.3261 c 0,0 0,0 0,0 c 0,0 0,0 0,0 c 0.0217,0.0217 0.0217,0.0435 0.0217,0.0652 c 0.0217,0.087 0.0435,0.1522 0.0435,0.2391 s -0.0217,0.1522 -0.0435,0.2391 c 0,0.0217 -0.0217,0.0435 -0.0217,0.0652 c 0,0 0,0 0,0 c 0,0 0,0 0,0 C 19.3043,7.8913 19.1957,8 19.0435,8.087 C 19.0435,8.087 19.0435,8.087 19.0435,8.087 C 19.0435,8.087 19.0435,8.087 19.0435,8.087 z M 20.7391,9.4348 L 20.7391,9.4348 c -0.1087,0.1087 -0.6522,-0.0217 -1.087,-0.3913 c 0,-0.0217 0,-0.0435 0,-0.0435 c 0,-0.0435 0,-0.1087 -0.0217,-0.1522 c 0,-0.0217 0,-0.0435 0,-0.0652 c 0,-0.0435 -0.0217,-0.087 -0.0217,-0.1087 c 0,-0.0217 0,-0.0435 -0.0217,-0.0652 c -0.0217,-0.0435 -0.0217,-0.0652 -0.0435,-0.1087 c 0,-0.0217 0,-0.0217 -0.0217,-0.0435 c -0.0217,-0.0435 -0.0435,-0.087 -0.0652,-0.1304 c 0,0 0,0 0,0 c 0.0652,-0.0435 0.1087,-0.087 0.1522,-0.1522 c 0,0 0,0 0,0 c 0.0435,0.0217 0.087,0.0435 0.1304,0.0652 c 0.0217,0 0.0217,0 0.0435,0.0217 c 0.0435,0.0217 0.0652,0.0217 0.1087,0.0435 c 0.0217,0 0.0435,0 0.0652,0.0217 c 0.0435,0 0.0652,0.0217 0.1087,0.0217 c 0.0217,0 0.0435,0 0.0652,0 c 0.0435,0 0.087,0 0.1522,0.0217 c 0.0217,0 0.0217,0 0.0435,0 C 20.7174,8.7826 20.8478,9.3043 20.7391,9.4348 z M 21.5652,7.4348 c 0,0.1739 -0.5217,0.4783 -1.1304,0.4783 c 0,0 -0.0217,0 -0.0217,0 c 0,0 -0.0217,0 -0.0217,0 c -0.0652,0 -0.1304,0 -0.1957,-0.0217 c -0.0217,0 -0.0435,0 -0.0435,0 c -0.0435,0 -0.087,-0.0217 -0.1087,-0.0217 c -0.0217,0 -0.0435,0 -0.0435,-0.0217 c -0.0435,-0.0217 -0.0652,-0.0217 -0.087,-0.0435 c 0,0 -0.0217,0 -0.0217,-0.0217 c 0,0 0,0 0,0 c 0.0435,-0.1087 0.0652,-0.2391 0.0652,-0.3478 c 0,-0.1087 -0.0217,-0.2391 -0.0652,-0.3478 c 0,0 0,0 0,0 c 0,0 0.0217,-0.0217 0.0217,-0.0217 c 0.0217,-0.0217 0.0652,-0.0435 0.087,-0.0435 c 0.0217,0 0.0217,-0.0217 0.0435,-0.0217 c 0.0435,0 0.0652,-0.0217 0.1087,-0.0217 c 0.0217,0 0.0435,0 0.0435,0 c 0.0652,0 0.1304,-0.0217 0.1957,-0.0217 c 0,0 0.0217,0 0.0217,0 c 0,0 0.0217,0 0.0217,0 C 21.0435,6.9565 21.5652,7.2609 21.5652,7.4348 z M 20.7391,5.4348 c 0.1087,0.1087 -0.0217,0.6522 -0.3913,1.087 c -0.0217,0 -0.0217,0 -0.0435,0 c -0.0435,0 -0.1087,0 -0.1522,0.0217 c -0.0217,0 -0.0435,0 -0.0652,0 c -0.0435,0 -0.087,0.0217 -0.1087,0.0217 c -0.0217,0 -0.0435,0 -0.0652,0.0217 c -0.0435,0.0217 -0.0652,0.0217 -0.1087,0.0435 c -0.0217,0 -0.0217,0 -0.0435,0.0217 c -0.0435,0.0217 -0.087,0.0435 -0.1304,0.0652 c 0,0 0,0 0,0 c -0.0435,-0.0652 -0.087,-0.1087 -0.1522,-0.1522 c 0,0 0,0 0,0 c 0.0217,-0.0435 0.0435,-0.087 0.0652,-0.1304 c 0,-0.0217 0,-0.0217 0.0217,-0.0435 c 0.0217,-0.0435 0.0217,-0.0652 0.0435,-0.1087 c 0,-0.0217 0,-0.0435 0.0217,-0.0652 c 0,-0.0435 0.0217,-0.0652 0.0217,-0.1087 c 0,-0.0217 0,-0.0435 0,-0.0652 c 0,-0.0435 0,-0.087 0.0217,-0.1522 c 0,-0.0217 0,-0.0217 0,-0.0435 C 20.087,5.4565 20.6087,5.3261 20.7391,5.4348 z M 18.2609,5.7391 c 0.0217,-0.6087 0.3043,-1.1304 0.4783,-1.1304 s 0.4783,0.5217 0.4783,1.1304 c 0,0 0,0.0217 0,0.0217 c 0,0 0,0.0217 0,0.0217 c 0,0.0652 0,0.1304 -0.0217,0.1957 c 0,0.0217 0,0.0435 0,0.0435 c 0,0.0435 -0.0217,0.087 -0.0217,0.1087 c 0,0.0217 0,0.0435 -0.0217,0.0435 c -0.0217,0.0435 -0.0217,0.0652 -0.0435,0.087 c 0,0 -0.0217,0.0217 -0.0217,0.0217 c 0,0 0,0 0,0 c -0.1087,-0.0435 -0.2391,-0.0652 -0.3478,-0.0652 c -0.1087,0 -0.2391,0.0217 -0.3478,0.0652 c 0,0 0,0 0,0 c 0,0 -0.0217,-0.0217 -0.0217,-0.0217 c -0.0217,-0.0217 -0.0217,-0.0652 -0.0435,-0.087 c 0,-0.0217 -0.0217,-0.0217 -0.0217,-0.0435 c 0,-0.0435 -0.0217,-0.0652 -0.0217,-0.1087 c 0,-0.0217 0,-0.0435 0,-0.0435 c 0,-0.0652 -0.0217,-0.1304 -0.0217,-0.1957 c 0,0 0,-0.0217 0,-0.0217 C 18.2609,5.7609 18.2609,5.7609 18.2609,5.7391 z M 16.7391,5.4348 c 0.1087,-0.1087 0.6522,0.0217 1.087,0.3913 c 0,0.0217 0,0.0435 0,0.0435 c 0,0.0435 0,0.1087 0.0217,0.1522 c 0,0.0217 0,0.0435 0,0.0652 c 0,0.0435 0.0217,0.087 0.0217,0.1087 c 0,0.0217 0,0.0435 0.0217,0.0652 c 0.0217,0.0435 0.0217,0.0652 0.0435,0.1087 c 0,0.0217 0,0.0217 0.0217,0.0435 c 0.0217,0.0435 0.0435,0.087 0.0652,0.1304 c 0,0 0,0 0,0 c -0.0652,0.0435 -0.1087,0.087 -0.1522,0.1522 c 0,0 0,0 0,0 c -0.0435,-0.0217 -0.087,-0.0435 -0.1304,-0.0652 c -0.0217,0 -0.0217,0 -0.0435,-0.0217 c -0.0435,-0.0217 -0.0652,-0.0217 -0.1087,-0.0435 c -0.0217,0 -0.0435,0 -0.0652,-0.0217 c -0.0435,0 -0.0652,-0.0217 -0.1087,-0.0217 c -0.0217,0 -0.0435,0 -0.0652,0 c -0.0435,0 -0.087,0 -0.1522,-0.0217 c -0.0217,0 -0.0217,0 -0.0435,0 C 16.7609,6.087 16.6304,5.5652 16.7391,5.4348 z M 15.913,7.4348 c 0,-0.1739 0.5217,-0.4783 1.1304,-0.4783 c 0,0 0.0217,0 0.0217,0 c 0,0 0.0217,0 0.0217,0 c 0.0652,0 0.1304,0 0.1957,0.0217 c 0.0217,0 0.0435,0 0.0435,0 c 0.0435,0 0.087,0.0217 0.1087,0.0217 c 0.0217,0 0.0435,0 0.0435,0.0217 c 0.0435,0.0217 0.0652,0.0217 0.087,0.0435 c 0,0 0.0217,0 0.0217,0.0217 c 0,0 0,0 0,0 c -0.0435,0.1087 -0.0652,0.2391 -0.0652,0.3478 s 0.0217,0.2391 0.0652,0.3478 c 0,0 0,0 0,0 c 0,0 -0.0217,0.0217 -0.0217,0.0217 c -0.0217,0.0217 -0.0652,0.0435 -0.087,0.0435 c -0.0217,0 -0.0217,0.0217 -0.0435,0.0217 c -0.0435,0 -0.0652,0.0217 -0.1087,0.0217 c -0.0217,0 -0.0435,0 -0.0435,0 c -0.0652,0 -0.1304,0.0217 -0.1957,0.0217 c 0,0 -0.0217,0 -0.0217,0 c 0,0 -0.0217,0 -0.0217,0 C 16.4348,7.913 15.913,7.6087 15.913,7.4348 z M 16.7391,9.4348 c -0.1087,-0.1087 0.0217,-0.6522 0.3913,-1.087 c 0.0217,0 0.0217,0 0.0435,0 c 0.0435,0 0.1087,0 0.1522,-0.0217 c 0.0217,0 0.0435,0 0.0652,0 c 0.0435,0 0.087,-0.0217 0.1087,-0.0217 c 0.0217,0 0.0435,0 0.0652,-0.0217 c 0.0435,-0.0217 0.0652,-0.0217 0.1087,-0.0435 c 0.0217,0 0.0217,0 0.0435,-0.0217 c 0.0435,-0.0217 0.087,-0.0435 0.1304,-0.0652 c 0,0 0,0 0,0 c 0.0435,0.0652 0.087,0.1087 0.1522,0.1522 c 0,0 0,0 0,0 c -0.0217,0.0435 -0.0435,0.087 -0.0652,0.1304 c 0,0.0217 0,0.0217 -0.0217,0.0435 c -0.0217,0.0435 -0.0217,0.0652 -0.0435,0.1087 c 0,0.0217 0,0.0435 -0.0217,0.0652 c 0,0.0435 -0.0217,0.0652 -0.0217,0.1087 c 0,0.0217 0,0.0435 0,0.0652 c 0,0.0435 0,0.087 -0.0217,0.1522 c 0,0.0217 0,0.0217 0,0.0435 C 17.3913,9.413 16.8696,9.5435 16.7391,9.4348 z M 18.2609,9.1304 c 0,0 0,-0.0217 0,-0.0217 c 0,0 0,-0.0217 0,-0.0217 c 0,-0.0652 0,-0.1304 0.0217,-0.1957 c 0,-0.0217 0,-0.0435 0,-0.0435 c 0,-0.0435 0.0217,-0.087 0.0217,-0.1087 c 0,-0.0217 0,-0.0435 0.0217,-0.0435 c 0.0217,-0.0435 0.0217,-0.0652 0.0435,-0.087 c 0,0 0.0217,-0.0217 0.0217,-0.0217 c 0,0 0,0 0,0 c 0.2391,0.0652 0.4783,0.0652 0.6957,0 c 0,0 0,0 0,0 c 0,0 0.0217,0.0217 0.0217,0.0217 c 0.0217,0.0217 0.0217,0.0652 0.0435,0.087 c 0,0.0217 0.0217,0.0217 0.0217,0.0435 c 0,0.0435 0.0217,0.0652 0.0217,0.1087 c 0,0.0217 0,0.0435 0,0.0435 c 0,0.0652 0.0217,0.1304 0.0217,0.1957 c 0,0 0,0.0217 0,0.0217 c 0,0 0,0.0217 0,0.0217 C 19.2174,9.7391 18.913,10.2609 18.7391,10.2609 S 18.2609,9.7391 18.2609,9.1304 z M 12.3043,8.087 c -0.0217,0.0217 -0.0435,0.0217 -0.0652,0.0217 c -0.1522,0.0435 -0.3043,0.0435 -0.4783,0 c -0.0217,0 -0.0435,-0.0217 -0.0652,-0.0217 c 0,0 0,0 0,0 c 0,0 0,0 0,0 c -0.1522,-0.0652 -0.2609,-0.1739 -0.3261,-0.3261 c 0,0 0,0 0,0 c 0,0 0,0 0,0 c -0.0217,-0.0217 -0.0217,-0.0435 -0.0217,-0.0652 c 0,0 0,0 0,0 c -0.0217,-0.087 -0.0435,-0.1522 -0.0435,-0.2391 s 0.0217,-0.1522 0.0435,-0.2391 c 0,-0.0217 0.0217,-0.0435 0.0217,-0.0652 c 0,0 0,0 0,0 c 0,0 0,0 0,0 c 0.0652,-0.1522 0.1739,-0.2609 0.3261,-0.3261 c 0,0 0,0 0,0 c 0,0 0,0 0,0 c 0.0217,-0.0217 0.0435,-0.0217 0.0652,-0.0217 c 0.1522,-0.0435 0.3043,-0.0435 0.4783,0 c 0.0217,0 0.0435,0.0217 0.0652,0.0217 c 0,0 0,0 0,0 c 0,0 0,0 0,0 c 0.1522,0.0652 0.2609,0.1739 0.3261,0.3261 c 0,0 0,0 0,0 c 0,0 0,0 0,0 c 0.0217,0.0217 0.0217,0.0435 0.0217,0.0652 c 0.0217,0.087 0.0435,0.1522 0.0435,0.2391 s -0.0217,0.1522 -0.0435,0.2391 c 0,0.0217 -0.0217,0.0435 -0.0217,0.0652 c 0,0 0,0 0,0 c 0,0 0,0 0,0 C 12.5652,7.8913 12.4565,8 12.3043,8.087 C 12.3043,8.087 12.3043,8.087 12.3043,8.087 C 12.3043,8.087 12.3043,8.087 12.3043,8.087 z M 14,9.4348 L 14,9.4348 c -0.1087,0.1087 -0.6522,-0.0217 -1.087,-0.3913 c 0,-0.0217 0,-0.0435 0,-0.0435 c 0,-0.0435 0,-0.1087 -0.0217,-0.1522 c 0,-0.0217 0,-0.0435 0,-0.0652 c 0,-0.0435 -0.0217,-0.087 -0.0217,-0.1087 c 0,-0.0217 0,-0.0435 -0.0217,-0.0652 c -0.0217,-0.0435 -0.0217,-0.0652 -0.0435,-0.1087 c 0,-0.0217 0,-0.0217 -0.0217,-0.0435 c -0.0217,-0.0435 -0.0435,-0.087 -0.0652,-0.1304 c 0,0 0,0 0,0 c 0.0652,-0.0435 0.1087,-0.087 0.1522,-0.1522 c 0,0 0,0 0,0 c 0.0435,0.0217 0.087,0.0435 0.1304,0.0652 c 0.0217,0 0.0217,0 0.0435,0.0217 c 0.0435,0.0217 0.0652,0.0217 0.1087,0.0435 c 0.0217,0 0.0435,0 0.0652,0.0217 c 0.0435,0 0.0652,0.0217 0.1087,0.0217 c 0.0217,0 0.0435,0 0.0652,0 c 0.0435,0 0.087,0 0.1522,0.0217 c 0.0217,0 0.0217,0 0.0435,0 C 13.9783,8.7826 14.1087,9.3043 14,9.4348 z M 14.8261,7.4348 c 0,0.1739 -0.5217,0.4783 -1.1304,0.4783 c 0,0 -0.0217,0 -0.0217,0 c 0,0 -0.0217,0 -0.0217,0 c -0.0652,0 -0.1304,0 -0.1957,-0.0217 c -0.0217,0 -0.0435,0 -0.0435,0 c -0.0435,0 -0.087,-0.0217 -0.1087,-0.0217 c -0.0217,0 -0.0435,0 -0.0435,-0.0217 c -0.0435,-0.0217 -0.0652,-0.0217 -0.087,-0.0435 c 0,0 -0.0217,0 -0.0217,-0.0217 c 0,0 0,0 0,0 c 0.0435,-0.1087 0.0652,-0.2391 0.0652,-0.3478 c 0,-0.1087 -0.0217,-0.2391 -0.0652,-0.3478 c 0,0 0,0 0,0 c 0,0 0.0217,-0.0217 0.0217,-0.0217 c 0.0217,-0.0217 0.0652,-0.0435 0.087,-0.0435 c 0.0217,0 0.0217,-0.0217 0.0435,-0.0217 c 0.0435,0 0.0652,-0.0217 0.1087,-0.0217 c 0.0217,0 0.0435,0 0.0435,0 c 0.0652,0 0.1304,-0.0217 0.1957,-0.0217 c 0,0 0.0217,0 0.0217,0 c 0,0 0.0217,0 0.0217,0 C 14.3043,6.9565 14.8261,7.2609 14.8261,7.4348 z M 14,5.4348 c 0.1087,0.1087 -0.0217,0.6522 -0.3913,1.087 c -0.0217,0 -0.0217,0 -0.0435,0 c -0.0435,0 -0.1087,0 -0.1522,0.0217 c -0.0217,0 -0.0435,0 -0.0652,0 c -0.0435,0 -0.087,0.0217 -0.1087,0.0217 c -0.0217,0 -0.0435,0 -0.0652,0.0217 c -0.0435,0.0217 -0.0652,0.0217 -0.1087,0.0435 c -0.0217,0 -0.0217,0 -0.0435,0.0217 c -0.0435,0.0217 -0.087,0.0435 -0.1304,0.0652 c 0,0 0,0 0,0 c -0.0435,-0.0652 -0.087,-0.1087 -0.1522,-0.1522 c 0,0 0,0 0,0 c 0.0217,-0.0435 0.0435,-0.087 0.0652,-0.1304 c 0,-0.0217 0,-0.0217 0.0217,-0.0435 c 0.0217,-0.0435 0.0217,-0.0652 0.0435,-0.1087 c 0,-0.0217 0,-0.0435 0.0217,-0.0652 c 0,-0.0435 0.0217,-0.0652 0.0217,-0.1087 c 0,-0.0217 0,-0.0435 0,-0.0652 c 0,-0.0435 0,-0.087 0.0217,-0.1522 c 0,-0.0217 0,-0.0217 0,-0.0435 C 13.3478,5.4565 13.8696,5.3261 14,5.4348 z M 11.5217,5.7391 c 0.0217,-0.6087 0.3043,-1.1304 0.4783,-1.1304 s 0.4783,0.5217 0.4783,1.1304 c 0,0 0,0.0217 0,0.0217 c 0,0 0,0.0217 0,0.0217 c 0,0.0652 0,0.1304 -0.0217,0.1957 c 0,0.0217 0,0.0435 0,0.0435 c 0,0.0435 -0.0217,0.087 -0.0217,0.1087 c 0,0.0217 0,0.0435 -0.0217,0.0435 c -0.0217,0.0435 -0.0217,0.0652 -0.0435,0.087 c 0,0 -0.0217,0.0217 -0.0217,0.0217 c 0,0 0,0 0,0 c -0.1087,-0.0435 -0.2391,-0.0652 -0.3478,-0.0652 c -0.1087,0 -0.2391,0.0217 -0.3478,0.0652 c 0,0 0,0 0,0 c 0,0 -0.0217,-0.0217 -0.0217,-0.0217 c -0.0217,-0.0217 -0.0217,-0.0652 -0.0435,-0.087 c 0,-0.0217 -0.0217,-0.0217 -0.0217,-0.0435 c 0,-0.0435 -0.0217,-0.0652 -0.0217,-0.1087 c 0,-0.0217 0,-0.0435 0,-0.0435 c 0,-0.0652 -0.0217,-0.1304 -0.0217,-0.1957 c 0,0 0,-0.0217 0,-0.0217 C 11.5217,5.7609 11.5217,5.7609 11.5217,5.7391 z M 10,5.4348 c 0.1087,-0.1087 0.6522,0.0217 1.087,0.3913 c 0,0.0217 0,0.0435 0,0.0435 c 0,0.0435 0,0.1087 0.0217,0.1522 c 0,0.0217 0,0.0435 0,0.0652 c 0,0.0435 0.0217,0.087 0.0217,0.1087 c 0,0.0217 0,0.0435 0.0217,0.0652 c 0.0217,0.0435 0.0217,0.0652 0.0435,0.1087 c 0,0.0217 0,0.0217 0.0217,0.0435 c 0.0217,0.0435 0.0435,0.087 0.0652,0.1304 c 0,0 0,0 0,0 c -0.0652,0.0435 -0.1087,0.087 -0.1522,0.1522 c 0,0 0,0 0,0 c -0.0435,-0.0217 -0.087,-0.0435 -0.1304,-0.0652 c -0.0217,0 -0.0217,0 -0.0435,-0.0217 c -0.0435,-0.0217 -0.0652,-0.0217 -0.1087,-0.0435 c -0.0217,0 -0.0435,0 -0.0652,-0.0217 c -0.0435,0 -0.0652,-0.0217 -0.1087,-0.0217 c -0.0217,0 -0.0435,0 -0.0652,0 c -0.0435,0 -0.087,0 -0.1522,-0.0217 c -0.0217,0 -0.0217,0 -0.0435,0 C 10.0217,6.087 9.8913,5.5652 10,5.4348 z M 9.1739,7.4348 c 0,-0.1739 0.5217,-0.4783 1.1304,-0.4783 c 0,0 0.0217,0 0.0217,0 c 0,0 0.0217,0 0.0217,0 c 0.0652,0 0.1304,0 0.1957,0.0217 c 0.0217,0 0.0435,0 0.0435,0 c 0.0435,0 0.087,0.0217 0.1087,0.0217 c 0.0217,0 0.0435,0 0.0435,0.0217 c 0.0435,0.0217 0.0652,0.0217 0.087,0.0435 c 0,0 0.0217,0 0.0217,0.0217 c 0,0 0,0 0,0 c -0.0435,0.1087 -0.0652,0.2391 -0.0652,0.3478 s 0.0217,0.2391 0.0652,0.3478 c 0,0 0,0 0,0 c 0,0 -0.0217,0.0217 -0.0217,0.0217 c -0.0217,0.0217 -0.0652,0.0435 -0.087,0.0435 c -0.0217,0 -0.0217,0.0217 -0.0435,0.0217 c -0.0435,0 -0.0652,0.0217 -0.1087,0.0217 c -0.0217,0 -0.0435,0 -0.0435,0 c -0.0652,0 -0.1304,0.0217 -0.1957,0.0217 c 0,0 -0.0217,0 -0.0217,0 c 0,0 -0.0217,0 -0.0217,0 C 9.6957,7.913 9.1739,7.6087 9.1739,7.4348 z M 10,9.4348 c -0.1087,-0.1087 0.0217,-0.6522 0.3913,-1.087 c 0.0217,0 0.0217,0 0.0435,0 c 0.0435,0 0.1087,0 0.1522,-0.0217 c 0.0217,0 0.0435,0 0.0652,0 c 0.0435,0 0.087,-0.0217 0.1087,-0.0217 c 0.0217,0 0.0435,0 0.0652,-0.0217 c 0.0435,-0.0217 0.0652,-0.0217 0.1087,-0.0435 c 0.0217,0 0.0217,0 0.0435,-0.0217 c 0.0435,-0.0217 0.087,-0.0435 0.1304,-0.0652 c 0,0 0,0 0,0 c 0.0435,0.0652 0.087,0.1087 0.1522,0.1522 c 0,0 0,0 0,0 c -0.0217,0.0435 -0.0435,0.087 -0.0652,0.1304 c 0,0.0217 0,0.0217 -0.0217,0.0435 c -0.0217,0.0435 -0.0217,0.0652 -0.0435,0.1087 c 0,0.0217 0,0.0435 -0.0217,0.0652 c 0,0.0435 -0.0217,0.0652 -0.0217,0.1087 c 0,0.0217 0,0.0435 0,0.0652 c 0,0.0435 0,0.087 -0.0217,0.1522 c 0,0.0217 0,0.0217 0,0.0435 C 10.6522,9.413 10.1304,9.5435 10,9.4348 z M 11.5217,9.1304 c 0,0 0,-0.0217 0,-0.0217 c 0,0 0,-0.0217 0,-0.0217 c 0,-0.0652 0,-0.1304 0.0217,-0.1957 c 0,-0.0217 0,-0.0435 0,-0.0435 c 0,-0.0435 0.0217,-0.087 0.0217,-0.1087 c 0,-0.0217 0,-0.0435 0.0217,-0.0435 c 0.0217,-0.0435 0.0217,-0.0652 0.0435,-0.087 c 0,0 0.0217,-0.0217 0.0217,-0.0217 c 0,0 0,0 0,0 c 0.2391,0.0652 0.4783,0.0652 0.6957,0 c 0,0 0,0 0,0 c 0,0 0.0217,0.0217 0.0217,0.0217 c 0.0217,0.0217 0.0217,0.0652 0.0435,0.087 c 0,0.0217 0.0217,0.0217 0.0217,0.0435 c 0,0.0435 0.0217,0.0652 0.0217,0.1087 c 0,0.0217 0,0.0435 0,0.0435 c 0,0.0652 0.0217,0.1304 0.0217,0.1957 c 0,0 0,0.0217 0,0.0217 c 0,0 0,0.0217 0,0.0217 C 12.4783,9.7391 12.1739,10.2609 12,10.2609 S 11.5217,9.7391 11.5217,9.1304 z M 5.5652,8.087 c -0.0217,0.0217 -0.0435,0.0217 -0.0652,0.0217 c -0.1522,0.0435 -0.3043,0.0435 -0.4783,0 c -0.0217,0 -0.0435,-0.0217 -0.0652,-0.0217 c 0,0 0,0 0,0 c 0,0 0,0 0,0 c -0.1522,-0.0652 -0.2609,-0.1739 -0.3261,-0.3261 c 0,0 0,0 0,0 c 0,0 0,0 0,0 c -0.0217,-0.0217 -0.0217,-0.0435 -0.0217,-0.0652 c 0,0 0,0 0,0 c -0.0217,-0.087 -0.0435,-0.1522 -0.0435,-0.2391 s 0.0217,-0.1522 0.0435,-0.2391 c 0,-0.0217 0.0217,-0.0435 0.0217,-0.0652 c 0,0 0,0 0,0 c 0,0 0,0 0,0 c 0.0652,-0.1522 0.1739,-0.2609 0.3261,-0.3261 c 0,0 0,0 0,0 c 0,0 0,0 0,0 c 0.0217,-0.0217 0.0435,-0.0217 0.0652,-0.0217 c 0.1522,-0.0435 0.3043,-0.0435 0.4783,0 c 0.0217,0 0.0435,0.0217 0.0652,0.0217 c 0,0 0,0 0,0 c 0,0 0,0 0,0 c 0.1522,0.0652 0.2609,0.1739 0.3261,0.3261 c 0,0 0,0 0,0 c 0,0 0,0 0,0 c 0.0217,0.0217 0.0217,0.0435 0.0217,0.0652 c 0.0217,0.087 0.0435,0.1522 0.0435,0.2391 s -0.0217,0.1522 -0.0435,0.2391 c 0,0.0217 -0.0217,0.0435 -0.0217,0.0652 c 0,0 0,0 0,0 c 0,0 0,0 0,0 C 5.8261,7.8913 5.7174,8 5.5652,8.087 C 5.5652,8.087 5.5652,8.087 5.5652,8.087 C 5.5652,8.087 5.5652,8.087 5.5652,8.087 z M 7.2609,9.4348 L 7.2609,9.4348 c -0.1087,0.1087 -0.6522,-0.0217 -1.087,-0.3913 c 0,-0.0217 0,-0.0435 0,-0.0435 c 0,-0.0435 0,-0.1087 -0.0217,-0.1522 c 0,-0.0217 0,-0.0435 0,-0.0652 c 0,-0.0435 -0.0217,-0.087 -0.0217,-0.1087 c 0,-0.0217 0,-0.0435 -0.0217,-0.0652 c -0.0217,-0.0435 -0.0217,-0.0652 -0.0435,-0.1087 c 0,-0.0217 0,-0.0217 -0.0217,-0.0435 c -0.0217,-0.0435 -0.0435,-0.087 -0.0652,-0.1304 c 0,0 0,0 0,0 c 0.0652,-0.0435 0.1087,-0.087 0.1522,-0.1522 c 0,0 0,0 0,0 c 0.0435,0.0217 0.087,0.0435 0.1304,0.0652 c 0.0217,0 0.0217,0 0.0435,0.0217 c 0.0435,0.0217 0.0652,0.0217 0.1087,0.0435 c 0.0217,0 0.0435,0 0.0652,0.0217 c 0.0435,0 0.0652,0.0217 0.1087,0.0217 c 0.0217,0 0.0435,0 0.0652,0 c 0.0435,0 0.087,0 0.1522,0.0217 c 0.0217,0 0.0217,0 0.0435,0 C 7.2391,8.7826 7.3696,9.3043 7.2609,9.4348 z M 8.087,7.4348 c 0,0.1739 -0.5217,0.4783 -1.1304,0.4783 c 0,0 -0.0217,0 -0.0217,0 c 0,0 -0.0217,0 -0.0217,0 c -0.0652,0 -0.1304,0 -0.1957,-0.0217 c -0.0217,0 -0.0435,0 -0.0435,0 c -0.0435,0 -0.087,-0.0217 -0.1087,-0.0217 c -0.0217,0 -0.0435,0 -0.0435,-0.0217 c -0.0435,-0.0217 -0.0652,-0.0217 -0.087,-0.0435 c 0,0 -0.0217,0 -0.0217,-0.0217 c 0,0 0,0 0,0 c 0.0435,-0.1087 0.0652,-0.2391 0.0652,-0.3478 c 0,-0.1087 -0.0217,-0.2391 -0.0652,-0.3478 c 0,0 0,0 0,0 c 0,0 0.0217,-0.0217 0.0217,-0.0217 c 0.0217,-0.0217 0.0652,-0.0435 0.087,-0.0435 c 0.0217,0 0.0217,-0.0217 0.0435,-0.0217 c 0.0435,0 0.0652,-0.0217 0.1087,-0.0217 c 0.0217,0 0.0435,0 0.0435,0 c 0.0652,0 0.1304,-0.0217 0.1957,-0.0217 c 0,0 0.0217,0 0.0217,0 c 0,0 0.0217,0 0.0217,0 C 7.5652,6.9565 8.087,7.2609 8.087,7.4348 z M 7.2609,5.4348 c 0.1087,0.1087 -0.0217,0.6522 -0.3913,1.087 c -0.0217,0 -0.0217,0 -0.0435,0 c -0.0435,0 -0.1087,0 -0.1522,0.0217 c -0.0217,0 -0.0435,0 -0.0652,0 c -0.0435,0 -0.087,0.0217 -0.1087,0.0217 c -0.0217,0 -0.0435,0 -0.0652,0.0217 c -0.0435,0.0217 -0.0652,0.0217 -0.1087,0.0435 c -0.0217,0 -0.0217,0 -0.0435,0.0217 c -0.0435,0.0217 -0.087,0.0435 -0.1304,0.0652 c 0,0 0,0 0,0 c -0.0435,-0.0652 -0.087,-0.1087 -0.1522,-0.1522 c 0,0 0,0 0,0 c 0.0217,-0.0435 0.0435,-0.087 0.0652,-0.1304 c 0,-0.0217 0,-0.0217 0.0217,-0.0435 c 0.0217,-0.0435 0.0217,-0.0652 0.0435,-0.1087 c 0,-0.0217 0,-0.0435 0.0217,-0.0652 c 0,-0.0435 0.0217,-0.0652 0.0217,-0.1087 c 0,-0.0217 0,-0.0435 0,-0.0652 c 0,-0.0435 0,-0.087 0.0217,-0.1522 c 0,-0.0217 0,-0.0217 0,-0.0435 C 6.6087,5.4565 7.1304,5.3261 7.2609,5.4348 z M 4.7826,5.7391 c 0.0217,-0.6087 0.3043,-1.1304 0.4783,-1.1304 s 0.4783,0.5217 0.4783,1.1304 c 0,0 0,0.0217 0,0.0217 c 0,0 0,0.0217 0,0.0217 c 0,0.0652 0,0.1304 -0.0217,0.1957 c 0,0.0217 0,0.0435 0,0.0435 c 0,0.0435 -0.0217,0.087 -0.0217,0.1087 c 0,0.0217 0,0.0435 -0.0217,0.0435 c -0.0217,0.0435 -0.0217,0.0652 -0.0435,0.087 c 0,0 -0.0217,0.0217 -0.0217,0.0217 c 0,0 0,0 0,0 c -0.1087,-0.0435 -0.2391,-0.0652 -0.3478,-0.0652 c -0.1087,0 -0.2391,0.0217 -0.3478,0.0652 c 0,0 0,0 0,0 c 0,0 -0.0217,-0.0217 -0.0217,-0.0217 c -0.0217,-0.0217 -0.0217,-0.0652 -0.0435,-0.087 c 0,-0.0217 -0.0217,-0.0217 -0.0217,-0.0435 c 0,-0.0435 -0.0217,-0.0652 -0.0217,-0.1087 c 0,-0.0217 0,-0.0435 0,-0.0435 c 0,-0.0652 -0.0217,-0.1304 -0.0217,-0.1957 c 0,0 0,-0.0217 0,-0.0217 C 4.7826,5.7609 4.7826,5.7609 4.7826,5.7391 z M 3.2609,5.4348 c 0.1087,-0.1087 0.6522,0.0217 1.087,0.3913 c 0,0.0217 0,0.0435 0,0.0435 c 0,0.0435 0,0.1087 0.0217,0.1522 c 0,0.0217 0,0.0435 0,0.0652 c 0,0.0435 0.0217,0.087 0.0217,0.1087 c 0,0.0217 0,0.0435 0.0217,0.0652 c 0.0217,0.0435 0.0217,0.0652 0.0435,0.1087 c 0,0.0217 0,0.0217 0.0217,0.0435 c 0.0217,0.0435 0.0435,0.087 0.0652,0.1304 c 0,0 0,0 0,0 c -0.0652,0.0435 -0.1087,0.087 -0.1522,0.1522 c 0,0 0,0 0,0 c -0.0435,-0.0217 -0.087,-0.0435 -0.1304,-0.0652 c -0.0217,0 -0.0217,0 -0.0435,-0.0217 c -0.0435,-0.0217 -0.0652,-0.0217 -0.1087,-0.0435 c -0.0217,0 -0.0435,0 -0.0652,-0.0217 c -0.0435,0 -0.0652,-0.0217 -0.1087,-0.0217 c -0.0217,0 -0.0435,0 -0.0652,0 c -0.0435,0 -0.087,0 -0.1522,-0.0217 c -0.0217,0 -0.0217,0 -0.0435,0 C 3.2826,6.087 3.1522,5.5652 3.2609,5.4348 z M 2.4348,7.4348 c 0,-0.1739 0.5217,-0.4783 1.1304,-0.4783 c 0,0 0.0217,0 0.0217,0 c 0,0 0.0217,0 0.0217,0 c 0.0652,0 0.1304,0 0.1957,0.0217 c 0.0217,0 0.0435,0 0.0435,0 c 0.0435,0 0.087,0.0217 0.1087,0.0217 c 0.0217,0 0.0435,0 0.0435,0.0217 c 0.0435,0.0217 0.0652,0.0217 0.087,0.0435 c 0,0 0.0217,0 0.0217,0.0217 c 0,0 0,0 0,0 c -0.0435,0.1087 -0.0652,0.2391 -0.0652,0.3478 s 0.0217,0.2391 0.0652,0.3478 c 0,0 0,0 0,0 c 0,0 -0.0217,0.0217 -0.0217,0.0217 c -0.0217,0.0217 -0.0652,0.0435 -0.087,0.0435 c -0.0217,0 -0.0217,0.0217 -0.0435,0.0217 c -0.0435,0 -0.0652,0.0217 -0.1087,0.0217 c -0.0217,0 -0.0435,0 -0.0435,0 c -0.0652,0 -0.1304,0.0217 -0.1957,0.0217 c 0,0 -0.0217,0 -0.0217,0 c 0,0 -0.0217,0 -0.0217,0 C 2.9565,7.913 2.4348,7.6087 2.4348,7.4348 z M 3.2609,9.4348 c -0.1087,-0.1087 0.0217,-0.6522 0.3913,-1.087 c 0.0217,0 0.0217,0 0.0435,0 c 0.0435,0 0.1087,0 0.1522,-0.0217 c 0.0217,0 0.0435,0 0.0652,0 c 0.0435,0 0.087,-0.0217 0.1087,-0.0217 c 0.0217,0 0.0435,0 0.0652,-0.0217 c 0.0435,-0.0217 0.0652,-0.0217 0.1087,-0.0435 c 0.0217,0 0.0217,0 0.0435,-0.0217 c 0.0435,-0.0217 0.087,-0.0435 0.1304,-0.0652 c 0,0 0,0 0,0 c 0.0435,0.0652 0.087,0.1087 0.1522,0.1522 c 0,0 0,0 0,0 c -0.0217,0.0435 -0.0435,0.087 -0.0652,0.1304 c 0,0.0217 0,0.0217 -0.0217,0.0435 c -0.0217,0.0435 -0.0217,0.0652 -0.0435,0.1087 c 0,0.0217 0,0.0435 -0.0217,0.0652 c 0,0.0435 -0.0217,0.0652 -0.0217,0.1087 c 0,0.0217 0,0.0435 0,0.0652 c 0,0.0435 0,0.087 -0.0217,0.1522 c 0,0.0217 0,0.0217 0,0.0435 C 3.913,9.413 3.3913,9.5435 3.2609,9.4348 z M 4.7826,9.1304 c 0,0 0,-0.0217 0,-0.0217 c 0,0 0,-0.0217 0,-0.0217 c 0,-0.0652 0,-0.1304 0.0217,-0.1957 c 0,-0.0217 0,-0.0435 0,-0.0435 c 0,-0.0435 0.0217,-0.087 0.0217,-0.1087 c 0,-0.0217 0,-0.0435 0.0217,-0.0435 c 0.0217,-0.0435 0.0217,-0.0652 0.0435,-0.087 c 0,0 0.0217,-0.0217 0.0217,-0.0217 c 0,0 0,0 0,0 c 0.2391,0.0652 0.4783,0.0652 0.6957,0 c 0,0 0,0 0,0 c 0,0 0.0217,0.0217 0.0217,0.0217 c 0.0217,0.0217 0.0217,0.0652 0.0435,0.087 c 0,0.0217 0.0217,0.0217 0.0217,0.0435 c 0,0.0435 0.0217,0.0652 0.0217,0.1087 c 0,0.0217 0,0.0435 0,0.0435 c 0,0.0652 0.0217,0.1304 0.0217,0.1957 c 0,0 0,0.0217 0,0.0217 c 0,0 0,0.0217 0,0.0217 C 5.7391,9.7391 5.4348,10.2609 5.2609,10.2609 S 4.7826,9.7391 4.7826,9.1304 z M 10.4783,19.3913 L 2.5435,19.3913 c 0.087,-0.087 0.2174,-0.1739 0.3913,-0.2826 c 0.0652,-0.0435 0.1304,-0.087 0.2174,-0.1304 c 0.1087,-0.087 0.2174,-0.1957 0.3261,-0.3261 c 0.1522,-0.1739 0.3043,-0.3478 0.4783,-0.413 c 0.1087,-0.0435 0.2391,-0.0217 0.3913,0 c 0.1739,0.0217 0.3913,0.0652 0.6087,0 c 0.1739,-0.0435 0.3478,-0.1522 0.5,-0.2609 c 0.1522,-0.1087 0.3043,-0.1957 0.4348,-0.2174 c 0.1087,-0.0217 0.2609,0.0435 0.413,0.087 c 0.1739,0.0652 0.3696,0.1304 0.587,0.1087 c 0.1957,-0.0217 0.3696,-0.1087 0.5435,-0.1957 c 0.1522,-0.087 0.3043,-0.1522 0.4348,-0.1522 s 0.2826,0.0652 0.4348,0.1522 c 0.1739,0.087 0.3478,0.1739 0.5435,0.1957 c 0.2174,0.0217 0.413,-0.0652 0.587,-0.1087 c 0.1522,-0.0435 0.3043,-0.1087 0.413,-0.087 c 0.1304,0.0217 0.2826,0.1304 0.4348,0.2174 c 0.1522,0.1087 0.3261,0.2174 0.5,0.2609 c 0.2174,0.0435 0.413,0.0217 0.6087,0 c 0.1522,-0.0217 0.3043,-0.0435 0.3913,0 c 0.1739,0.0652 0.3261,0.2391 0.4783,0.413 c 0.1087,0.1304 0.2174,0.2391 0.3261,0.3261 c 0.0652,0.0435 0.1304,0.087 0.2174,0.1304 c 0.1739,0.1087 0.3043,0.1957 0.3913,0.2826 L 10.4783,19.3913 z M 13.6957,19.3913 c -0.1087,-0.2826 -0.3696,-0.4565 -0.6522,-0.6522 c -0.0652,-0.0435 -0.1304,-0.087 -0.1957,-0.1304 c -0.0652,-0.0435 -0.1522,-0.1522 -0.2609,-0.2609 c -0.0435,-0.0435 -0.0652,-0.087 -0.1087,-0.1304 c 0.0435,0 0.1087,0.0217 0.1522,0.0217 c 0.1739,0.0217 0.3913,0.0652 0.6087,0 c 0.1739,-0.0435 0.3478,-0.1522 0.5,-0.2609 c 0.1522,-0.1087 0.3043,-0.1957 0.4348,-0.2174 c 0.1087,-0.0217 0.2609,0.0435 0.413,0.087 c 0.1739,0.0652 0.3696,0.1304 0.587,0.1087 c 0.1957,-0.0217 0.3696,-0.1087 0.5435,-0.1957 c 0.1522,-0.087 0.3043,-0.1522 0.4348,-0.1522 c 0.1304,0 0.2826,0.0652 0.4348,0.1522 c 0.1739,0.087 0.3478,0.1739 0.5435,0.1957 c 0.2174,0.0217 0.413,-0.0435 0.587,-0.1087 c 0.1522,-0.0435 0.2826,-0.1087 0.413,-0.087 c 0.1304,0.0217 0.2826,0.1304 0.4348,0.2174 c 0.1522,0.1087 0.3261,0.2174 0.5,0.2609 c 0.2174,0.0435 0.413,0.0217 0.6087,0 c 0.1522,-0.0217 0.3043,-0.0435 0.3913,0 c 0.1739,0.0652 0.3261,0.2391 0.4783,0.413 c 0.1087,0.1304 0.2174,0.2391 0.3261,0.3261 c 0.0652,0.0435 0.1522,0.087 0.2174,0.1522 c 0.1739,0.1087 0.2826,0.1957 0.3696,0.2826 L 13.6957,19.413 z" fill="#000000" stroke="#000000" stroke-width="0.45" stroke-linecap="round" stroke-linejoin="round" vector-effect="non-scaling-stroke" paint-order="stroke fill" />
</svg>
