<svg xmlns="http://www.w3.org/2000/svg" viewBox="0 0 24 24" width="24" height="24" aria-labelledby="chest-title" role="img">
  <title>Chest</title>
  <path d="M 17,4.5 L 7,4.5 A 5.0054,5.0054 0 0,0 2,9.5 l 0,8.5714 a 1.4286,1.4286 0 0,0 1.4286,1.4286 L 20.5714,19.5 a 1.4286,1.4286 0 0,0 1.4286,-1.4286 L 22,9.5 A 5.0054,5.0054 0 0,0 17,4.5 Z M 20.5714,9.5 l 0,0.7143 L 17.7143,10.2143 L 17.7143,6 A 3.5777,3.5777 0 0,1 20.5714,9.5 Z M 12.7143,13.0714 L 11.2857,13.0714 L 11.2857,10.2143 l 1.4286,0 Z M 10.5714,14.5 l 2.8571,0 a 0.7143,0.7143 0 0,0 0.7143,-0.7143 L 14.1429,11.6429 l 2.1429,0 l 0,6.4286 L 7.7143,18.0714 L 7.7143,11.6429 l 2.1429,0 l 0,2.1429 A 0.7143,0.7143 0 0,0 10.5714,14.5 Z M 14.1429,10.2143 L 14.1429,9.5 a 0.7143,0.7143 0 0,0 -0.7143,-0.7143 L 10.5714,8.7857 a 0.7143,0.7143 0 0,0 -0.7143,0.7143 l 0,0.7143 L 7.7143,10.2143 L 7.7143,5.9286 l 8.5714,0 l 0,4.2857 Z M 6.2857,6 L 6.2857,10.2143 L 3.4286,10.2143 L 3.4286,9.5 A 3.5777,3.5777 0 0,1 6.2857,6 Z M 3.4286,11.6429 L 6.2857,11.6429 l 0,6.4286 L 3.4286,18.0714 Z M 20.5714,18.0714 L 17.7143,18.0714 L 17.7143,11.6429 l 2.8571,0 l 0,6.4286 Z" fill="#000000" stroke="#000000" stroke-width="0.45" stroke-linecap="round" stroke-linejoin="round" vector-effect="non-scaling-stroke" paint-order="stroke fill" />
</svg>
