<svg xmlns="http://www.w3.org/2000/svg" viewBox="0 0 24 24" width="24" height="24" aria-labelledby="cinema-title" role="img">
  <title>Cinema</title>
  <path d="M 22,12.8333 l 0,3.3333 a 0.8333,0.8333 0 0,1 -1.6667,0 s 0.1,-0.8333 -1.6667,-0.8333 l -1.6667,0 l 0,4.1667 a 0.8333,0.8333 0 0,1 -0.8333,0.8333 l -13.3333,0 a 0.8333,0.8333 0 0,1 -0.8333,-0.8333 l 0,-6.6667 a 0.8333,0.8333 0 0,1 0.8333,-0.8333 l 13.3333,0 a 0.8333,0.8333 0 0,1 0.8333,0.8333 L 17,13.6667 l 1.6667,0 c 1.7667,0 1.6667,-0.8333 1.6667,-0.8333 a 0.8333,0.8333 0 0,1 1.6667,0 z M 5.3333,5.3333 a 3.3333,3.3333 0 0,0 0,6.6667 a 3.3333,3.3333 0 0,0 0,-6.6667 z M 5.3333,10.3333 a 1.6667,1.6667 0 0,1 0,-3.3333 a 1.6667,1.6667 0 0,1 0,3.3333 z M 12.8333,3.6667 a 4.1667,4.1667 0 0,0 0,8.3333 a 4.1667,4.1667 0 0,0 0,-8.3333 z M 12.8333,10.3333 a 2.5,2.5 0 0,1 0,-5 a 2.5,2.5 0 0,1 0,5 z" fill="#000000" stroke="#000000" stroke-width="0.45" stroke-linecap="round" stroke-linejoin="round" vector-effect="non-scaling-stroke" paint-order="stroke fill" />
</svg>
