<svg xmlns="http://www.w3.org/2000/svg" viewBox="0 0 24 24" width="24" height="24" aria-labelledby="city_arkaden-title" role="img">
  <title>City Arkaden</title>
  <path d="M 14.2814,2.0681 C 14.7316,2.0298 15.3388,2 16.1431,2 s 1.411,0.0298 1.8617,0.0681 c 1.0417,0.0885 1.794,0.9072 1.8595,1.917 c 0.0179,0.2723 0.0298,0.5893 0.0298,0.9451 s -0.0119,0.6732 -0.0298,0.9451 c -0.0655,1.0102 -0.8179,1.8285 -1.8595,1.9174 a 18.7229,18.7229 0 0,1 -1.011,0.0557 l 0,1.7395 a 32.7651,32.7651 0 0,1 1.4289,0.3353 c 1.4297,0.3719 2.3008,1.6885 2.3008,3.0791 l 0,7.2934 a 0.851,0.851 0 0,1 0,1.7021 L 14.7542,21.9978 a 0.851,0.851 0 0,1 -0.1234,0 L 9.3688,21.9978 a 0.851,0.851 0 0,1 -0.1234,0 L 3.2766,21.9978 a 0.851,0.851 0 0,1 0,-1.7021 L 3.2766,11.1644 c 0,-1.6068 1.3051,-2.9518 2.9591,-2.8765 c 2.688,0.1217 6.0764,0.4545 9.0559,0.9732 l 0,-1.4127 a 18.2974,18.2974 0 0,1 -1.0102,-0.0553 c -1.0417,-0.0894 -1.794,-0.9076 -1.8595,-1.9178 a 14.4677,14.4677 0 0,1 -0.0302,-0.9447 c 0,-0.3562 0.0123,-0.6732 0.0298,-0.9455 c 0.066,-1.0098 0.8183,-1.8285 1.86,-1.9174 m 1.8617,1.634 c -0.7634,0 -1.3217,0.0281 -1.717,0.0617 c -0.1677,0.0145 -0.2923,0.126 -0.3059,0.3319 a 12.7656,12.7656 0 0,0 -0.0264,0.8344 c 0,0.3166 0.0111,0.597 0.0264,0.8349 c 0.0136,0.2055 0.1383,0.3174 0.3064,0.3319 c 0.3949,0.0336 0.9532,0.0617 1.7165,0.0617 s 1.3217,-0.0281 1.717,-0.0617 c 0.1677,-0.0145 0.2923,-0.1264 0.3059,-0.3319 a 13.1911,13.1911 0 0,0 0,-1.6693 c -0.0136,-0.206 -0.1383,-0.3174 -0.3064,-0.3319 c -0.3949,-0.034 -0.9532,-0.0617 -1.7165,-0.0617 M 4.9787,20.2948 L 4.9787,15.7396 l 3.4769,0 l 0,4.5552 z M 19.0209,20.2948 l -3.4774,0 L 15.5435,15.7396 l 3.4778,0 z M 13.8419,15.743 l 0,-0.0034 l -3.6837,0 l 0,4.5552 l 3.6837,0 z" fill="#000000" stroke="#000000" stroke-width="0.45" stroke-linecap="round" stroke-linejoin="round" vector-effect="non-scaling-stroke" paint-order="stroke fill" fill-rule="evenodd" />
</svg>
