<svg xmlns="http://www.w3.org/2000/svg" viewBox="0 0 24 24" width="24" height="24" aria-labelledby="free_parking-title" role="img">
  <title>Free Parking</title>
  <path d="M 16.6665,18.3333 l 0,-3.6667 c 0,-0.5667 -0.4333,-1 -1,-1 l -0.1668,0 c -0.1668,0 -0.2998,-0.1001 -0.3332,-0.2335 l -1.1668,-4.0666 l 0,-0.0334 c -0.2669,-0.6001 -0.8665,-1 -1.5333,-1 L 6.2001,8.3335 c -0.6668,0 -1.2669,0.3999 -1.5333,1 l 0,0.0334 l -1.1668,4.0666 c -0.0667,0.1334 -0.2002,0.2335 -0.3332,0.2335 L 3,13.6666 C 2.4333,13.6666 2,14.0998 2,14.6665 l 0,3.6667 c 0,0.5667 0.4333,1 1,1 l 0,1.6668 c 0,0.5667 0.4333,1 1,1 l 0.6668,0 c 0.5667,0 1,-0.4333 1,-1 l 0,-1.6668 l 7.3335,0 l 0,1.6668 c 0,0.5667 0.4333,1 1,1 l 0.6668,0 c 0.5667,0 1,-0.4333 1,-1 l 0,-1.6668 C 16.2332,19.3333 16.6665,18.9 16.6665,18.3333 z M 4.9999,21 c 0,0.2002 -0.1334,0.3332 -0.3332,0.3332 L 4,21.3332 c -0.2002,0 -0.3332,-0.1334 -0.3332,-0.3332 l 0,-1.6668 l 1.3332,0 L 4.9999,21 z M 14.9997,21 c 0,0.2002 -0.1334,0.3332 -0.3332,0.3332 l -0.6668,0 c -0.2002,0 -0.3332,-0.1334 -0.3332,-0.3332 l 0,-1.6668 l 1.3332,0 L 15.0001,21 z M 15.9997,18.3333 c 0,0.2002 -0.1334,0.3332 -0.3332,0.3332 l -0.3332,0 l -2,0 L 5.3331,18.6665 L 3.3332,18.6665 L 3,18.6665 c -0.2002,0 -0.3332,-0.1334 -0.3332,-0.3332 l 0,-3.6667 c 0,-0.2002 0.1334,-0.3332 0.3332,-0.3332 l 0.1668,0 c 0.4333,0 0.8332,-0.2998 0.9666,-0.7335 l 1.1668,-4.0333 c 0.1668,-0.3332 0.5,-0.5667 0.8999,-0.5667 l 6.2668,0 c 0.3666,0 0.7335,0.2002 0.8999,0.5667 l 1.1668,4.0333 c 0.1334,0.4333 0.5333,0.7335 0.9666,0.7335 l 0.1668,0 c 0.2002,0 0.3332,0.1334 0.3332,0.3332 L 15.9997,18.3333 z" fill="#000000" stroke="#000000" stroke-width="0.45" stroke-linecap="round" stroke-linejoin="round" vector-effect="non-scaling-stroke" paint-order="stroke fill" />
  <path d="M 4.9999,14.9997 c -0.7335,0 -1.3332,0.6001 -1.3332,1.3332 s 0.6001,1.3332 1.3332,1.3332 s 1.3332,-0.6001 1.3332,-1.3332 S 5.7334,14.9997 4.9999,14.9997 z M 4.9999,16.9997 c -0.3666,0 -0.6668,-0.2998 -0.6668,-0.6668 s 0.2998,-0.6668 0.6668,-0.6668 s 0.6668,0.2998 0.6668,0.6668 S 5.3665,16.9997 4.9999,16.9997 z" fill="#000000" stroke="#000000" stroke-width="0.45" stroke-linecap="round" stroke-linejoin="round" vector-effect="non-scaling-stroke" paint-order="stroke fill" />
  <path d="M 13.6666,14.9997 c -0.7335,0 -1.3332,0.6001 -1.3332,1.3332 s 0.6001,1.3332 1.3332,1.3332 s 1.3332,-0.6001 1.3332,-1.3332 S 14.4001,14.9997 13.6666,14.9997 z M 13.6666,16.9997 c -0.3666,0 -0.6668,-0.2998 -0.6668,-0.6668 s 0.2998,-0.6668 0.6668,-0.6668 c 0.3666,0 0.6668,0.2998 0.6668,0.6668 S 14.0331,16.9997 13.6666,16.9997 z" fill="#000000" stroke="#000000" stroke-width="0.45" stroke-linecap="round" stroke-linejoin="round" vector-effect="non-scaling-stroke" paint-order="stroke fill" />
  <path d="M 9.9998,16.6665 l -1.3332,0 c -0.2002,0 -0.3332,0.1334 -0.3332,0.3332 c 0,0.2002 0.1334,0.3332 0.3332,0.3332 l 1.3332,0 c 0.2002,0 0.3332,-0.1334 0.3332,-0.3332 C 10.3334,16.7999 10.2,16.6665 9.9998,16.6665 z" fill="#000000" stroke="#000000" stroke-width="0.45" stroke-linecap="round" stroke-linejoin="round" vector-effect="non-scaling-stroke" paint-order="stroke fill" />
  <path d="M 10.6666,15.3333 l -2.6667,0 c -0.2002,0 -0.3332,0.1334 -0.3332,0.3332 c 0,0.2002 0.1334,0.3332 0.3332,0.3332 l 2.6667,0 c 0.2002,0 0.3332,-0.1334 0.3332,-0.3332 C 10.9998,15.4668 10.8668,15.3333 10.6666,15.3333 z" fill="#000000" stroke="#000000" stroke-width="0.45" stroke-linecap="round" stroke-linejoin="round" vector-effect="non-scaling-stroke" paint-order="stroke fill" />
  <path d="M 6.1334,13.6666 l 6.4332,0 c 0.2002,0 0.3999,-0.1001 0.5333,-0.2669 s 0.1668,-0.3999 0.1001,-0.6001 L 12.4001,10.1333 c -0.0667,-0.2669 -0.3332,-0.4666 -0.6334,-0.4666 L 6.9332,9.6666 c -0.2998,0 -0.5333,0.1668 -0.6334,0.4666 l -0.7998,2.6667 c -0.0667,0.2002 -0.0334,0.4333 0.1001,0.6001 C 5.7334,13.5665 5.9332,13.6666 6.1334,13.6666 z M 6.9332,10.3334 l 4.8335,0 l 0.7998,2.6667 L 6.1334,12.9998 L 6.9332,10.3334 z" fill="#000000" stroke="#000000" stroke-width="0.45" stroke-linecap="round" stroke-linejoin="round" vector-effect="non-scaling-stroke" paint-order="stroke fill" />
  <path d="M 21.6664,2 L 15.9997,2 c -0.2002,0 -0.3332,0.1334 -0.3332,0.3332 l 0,5.6667 c 0,0.2002 0.1334,0.3332 0.3332,0.3332 l 2.3332,0 l 0,10.3334 l -0.6668,0 c -0.2002,0 -0.3332,0.1334 -0.3332,0.3332 l 0,1 l -0.6668,0 c -0.2002,0 -0.3332,0.1334 -0.3332,0.3332 l 0,1.3332 c 0,0.2002 0.1334,0.3332 0.3332,0.3332 l 3.9999,0 c 0.2002,0 0.3332,-0.1334 0.3332,-0.3332 l 0,-1.3332 c 0,-0.2002 -0.1334,-0.3332 -0.3332,-0.3332 l -0.6668,0 l 0,-1 c 0,-0.2002 -0.1334,-0.3332 -0.3332,-0.3332 l -0.6668,0 L 19.0001,8.3335 l 2.6667,0 c 0.2002,0 0.3332,-0.1334 0.3332,-0.3332 L 22,2.3332 C 22,2.1334 21.8666,2 21.6664,2 z M 20.3332,21.3332 l -3.3331,0 l 0,-0.6668 l 0.6668,0 l 2,0 l 0.6668,0 L 20.3332,21.3332 z M 19.3333,20 l -1.3332,0 l 0,-0.6668 l 1.3332,0 L 19.3333,20 z M 21.3332,7.6667 L 16.3333,7.6667 L 16.3333,2.6668 L 21.3332,2.6668 L 21.3332,7.6667 z" fill="#000000" stroke="#000000" stroke-width="0.45" stroke-linecap="round" stroke-linejoin="round" vector-effect="non-scaling-stroke" paint-order="stroke fill" />
  <path d="M 18.3333,6.9999 c 0.2002,0 0.3332,-0.1334 0.3332,-0.3332 L 18.6665,5.9999 l 0.3332,0 c 0.7335,0 1.3332,-0.6001 1.3332,-1.3332 c 0,-0.7335 -0.6001,-1.3332 -1.3332,-1.3332 l -0.6668,0 c -0.2002,0 -0.3332,0.1334 -0.3332,0.3332 l 0,2 l 0,1 C 18.0001,6.8665 18.1331,6.9999 18.3333,6.9999 z M 19.6664,4.6667 c 0,0.3666 -0.2998,0.6668 -0.6668,0.6668 l -0.3332,0 L 18.6665,4 l 0.3332,0 C 19.3666,4 19.6664,4.3002 19.6664,4.6667 z" fill="#000000" stroke="#000000" stroke-width="0.45" stroke-linecap="round" stroke-linejoin="round" vector-effect="non-scaling-stroke" paint-order="stroke fill" />
</svg>
