<svg xmlns="http://www.w3.org/2000/svg" viewBox="0 0 24 24" width="24" height="24" aria-labelledby="gotojail-title" role="img">
  <title>Gotojail</title>
  <path d="M 11.2593,3.4815 L 11.2593,2.7407 a 0.7407,0.7407 0 0,1 1.4815,0 l 0,0.7407 a 0.7407,0.7407 0 0,1 -1.4815,0 Z M 18.6667,6.4444 a 0.7407,0.7407 0 0,0 0.5241,-0.2167 l 0.7407,-0.7407 a 0.7412,0.7412 0 0,0 -1.0481,-1.0481 l -0.7407,0.7407 A 0.7407,0.7407 0 0,0 18.6667,6.4444 Z M 4.8093,6.2278 A 0.7412,0.7412 0 0,0 5.8574,5.1796 l -0.7407,-0.7407 A 0.7412,0.7412 0 0,0 4.0685,5.487 Z M 12.8648,8.6769 a 0.7407,0.7407 0 1,0 -0.2444,1.4611 C 14.3769,10.4333 15.7037,12.0296 15.7037,13.8519 a 0.7407,0.7407 0 0,0 1.4815,0 C 17.1852,11.3148 15.3269,9.0898 12.863,8.6769 Z M 21.6296,18.2963 l 0,2.2222 a 1.4815,1.4815 0 0,1 -1.4815,1.4815 L 3.8519,22 a 1.4815,1.4815 0 0,1 -1.4815,-1.4815 L 2.3704,18.2963 a 1.4815,1.4815 0 0,1 1.4815,-1.4815 L 3.8519,13.8519 a 8.1481,8.1481 0 0,1 8.2102,-8.1481 c 4.4583,0.0333 8.0861,3.7306 8.0861,8.2407 l 0,2.8704 A 1.4815,1.4815 0 0,1 21.6296,18.2963 Z M 5.3333,16.8148 L 18.6667,16.8148 L 18.6667,13.9444 c 0,-3.7037 -2.9676,-6.7324 -6.6157,-6.7593 L 12,7.1852 a 6.6667,6.6667 0 0,0 -6.6667,6.6667 Z M 20.1481,20.5185 L 20.1481,18.2963 L 3.8519,18.2963 l 0,2.2222 L 20.1481,20.5185 Z" fill="#000000" stroke="#000000" stroke-width="0.45" stroke-linecap="round" stroke-linejoin="round" vector-effect="non-scaling-stroke" paint-order="stroke fill" />
</svg>
