<svg xmlns="http://www.w3.org/2000/svg" viewBox="0 0 24 24" width="24" height="24" aria-labelledby="hafenstadt-title" role="img">
  <title>Hafenstadt</title>
  <path d="M 9.7885,2.5 a 0.5,0.5 0 0,0 -0.5,-0.5 L 8.0385,2 a 0.5,0.5 0 0,0 -0.5,0.5 l 0,6.091 a 0.3575,0.3575 0 0,1 -0.1185,0.2655 A 7.195,7.195 0 0,0 5.0385,14.204 l 0,6.692 c 0,0.61 0.4945,1.104 1.104,1.104 l 4.7175,0 A 1.178,1.178 0 0,0 12.0385,20.822 L 12.0385,14.0315 c 0,-1.941 -0.771,-3.8025 -2.1435,-5.175 a 0.3635,0.3635 0 0,1 -0.1065,-0.257 L 9.7885,2.5 Z M 6.0385,14.5 l 5,0 l 0,4 L 6.0385,18.5 l 0,-4 Z M 17.858,12 L 14.2185,12 l 0.32,-3 l 3,0 l 0.319,3 Z M 13.6385,8 l 4.8,0 l 0.5065,4.768 A 2.924,2.924 0 0,1 16.5385,15.958 L 16.5385,21 l 1.5,0 a 0.5,0.5 0 0,1 0,1 l -4,0 a 0.5,0.5 0 0,1 0,-1 l 1.5,0 L 15.5385,15.9575 a 2.924,2.924 0 0,1 -2.4065,-3.1895 L 13.6385,8 Z" fill="#000000" stroke="#000000" stroke-width="0.45" stroke-linecap="round" stroke-linejoin="round" vector-effect="non-scaling-stroke" paint-order="stroke fill" fill-rule="evenodd" />
</svg>
