<svg xmlns="http://www.w3.org/2000/svg" viewBox="0 0 24 24" width="24" height="24" aria-labelledby="hauptbahnhof-title" role="img">
  <title>Hauptbahnhof</title>
  <path d="M 20.5464,10.3839 L 18.5473,3.0527 A 1.4286,1.4286 0 0,0 17.1687,2 L 6.8313,2 A 1.4286,1.4286 0 0,0 5.4527,3.0527 L 3.4536,10.3839 a 0.7214,0.7214 0 0,0 0,0.375 l 1.9991,7.3312 A 1.4286,1.4286 0 0,0 6.8313,19.1429 L 7.7143,19.1429 L 6.4286,20.8571 a 0.7143,0.7143 0 1,0 1.1429,0.8571 L 9.5,19.1429 l 5,0 l 1.9286,2.5714 a 0.7143,0.7143 0 1,0 1.1429,-0.8571 L 16.2857,19.1429 l 0.883,0 a 1.4286,1.4286 0 0,0 1.3786,-1.0527 l 1.9991,-7.3312 A 0.7214,0.7214 0 0,0 20.5464,10.3839 Z M 6.8313,3.4286 L 17.1687,3.4286 L 18.9643,10.008 l -6.9643,1.2661 L 5.0357,10.008 Z M 5.1348,11.4768 L 11.2857,12.5964 L 11.2857,17.7143 L 6.8313,17.7143 Z M 17.1687,17.7143 L 12.7143,17.7143 L 12.7143,12.5964 l 6.1554,-1.1196 Z M 8.4286,7.7143 a 0.7143,0.7143 0 0,1 0.7143,-0.7143 l 5.7143,0 a 0.7143,0.7143 0 0,1 0,1.4286 L 9.1429,8.4286 A 0.7143,0.7143 0 0,1 8.4286,7.7143 Z" fill="#000000" stroke="#000000" stroke-width="0.45" stroke-linecap="round" stroke-linejoin="round" vector-effect="non-scaling-stroke" paint-order="stroke fill" />
</svg>
