<svg xmlns="http://www.w3.org/2000/svg" viewBox="0 0 24 24" width="24" height="24" aria-labelledby="heiligengeistplatz-title" role="img">
  <title>Heiligengeistplatz</title>
  <path d="M 21.7979,4.9603 l -2.7582,-2.7582 a 0.6899,0.6899 0 0,0 -0.9757,0.9757 l 0.1276,0.1267 L 13.4362,6.8712 l -3.2944,0.6594 a 0.6939,0.6939 0 0,0 -0.3525,0.1879 L 2.6059,14.9003 a 2.0687,2.0687 0 0,0 0,2.9254 L 6.1743,21.3941 a 2.0687,2.0687 0 0,0 2.9254,0 l 7.1817,-7.1809 a 0.6896,0.6896 0 0,0 0.1879,-0.3525 l 0.6594,-3.2944 l 3.5667,-4.7554 l 0.1267,0.1276 a 0.6899,0.6899 0 0,0 0.9757,-0.9757 Z M 8.8981,10.5604 L 13.4396,15.1019 L 9.5876,18.954 L 5.046,14.4124 Z M 7.637,20.6184 a 0.6844,0.6844 0 0,1 -0.487,-0.2017 L 3.5833,16.85 a 0.6896,0.6896 0 0,1 0,-0.9749 L 4.0712,15.3873 L 8.6127,19.9288 L 8.1223,20.4167 A 0.6896,0.6896 0 0,1 7.637,20.6184 Z M 15.9315,9.8613 a 0.6827,0.6827 0 0,0 -0.1241,0.2784 l -0.649,3.2435 L 14.4145,14.1271 L 9.8729,9.5855 l 0.7439,-0.7439 l 3.2435,-0.649 a 0.6827,0.6827 0 0,0 0.2784,-0.1241 l 5.0381,-3.7788 l 0.5335,0.5335 Z" fill="#000000" stroke="#000000" stroke-width="0.45" stroke-linecap="round" stroke-linejoin="round" vector-effect="non-scaling-stroke" paint-order="stroke fill" />
</svg>
