<svg xmlns="http://www.w3.org/2000/svg" viewBox="0 0 24 24" width="24" height="24" aria-labelledby="herrengasse-title" role="img">
  <title>Herrengasse</title>
  <path d="M 8.1111,17 c 0,0.3056 -0.25,0.5556 -0.5556,0.5556 s -0.5556,-0.25 -0.5556,-0.5556 l 0,-6.6667 c 0,-0.3056 0.25,-0.5556 0.5556,-0.5556 s 0.5556,0.25 0.5556,0.5556 l 0,6.6667 z M 10.3333,17 c 0,0.3056 -0.25,0.5556 -0.5556,0.5556 s -0.5556,-0.25 -0.5556,-0.5556 l 0,-6.6667 c 0,-0.3056 0.25,-0.5556 0.5556,-0.5556 s 0.5556,0.25 0.5556,0.5556 l 0,6.6667 z M 12.5556,17 c 0,0.3056 -0.25,0.5556 -0.5556,0.5556 s -0.5556,-0.25 -0.5556,-0.5556 l 0,-6.6667 c 0,-0.3056 0.25,-0.5556 0.5556,-0.5556 s 0.5556,0.25 0.5556,0.5556 l 0,6.6667 z M 17.5556,5.3333 L 17,5.3333 L 17,4.2222 a 2.2222,2.2222 0 0,0 -2.2222,-2.2222 L 4.7778,2 a 2.2222,2.2222 0 0,0 -2.2222,2.2222 l 0,14.4444 c 0,1.84 1.4933,3.3333 3.3333,3.3333 l 7.7778,0 c 1.84,0 3.3333,-1.4933 3.3333,-3.3333 l 0.5556,0 c 2.1444,0 3.8889,-1.7444 3.8889,-3.8889 l 0,-5.5556 C 21.4444,7.0778 19.7,5.3333 17.5556,5.3333 z M 4.7778,4.2222 l 10,0 l 0,1.1111 l -4.9378,0 l -0.1311,0.3689 c -0.1822,0.5089 -0.7367,0.8111 -1.2411,0.72 l -0.3867,-0.0644 l -0.1922,0.3411 A 1.6656,1.6656 0 0,1 6.4444,7.5556 C 5.5256,7.5556 4.7778,6.8078 4.7778,5.8889 L 4.7778,4.2222 z M 14.7778,18.6667 a 1.1111,1.1111 0 0,1 -1.1111,1.1111 L 5.8889,19.7778 a 1.1111,1.1111 0 0,1 -1.1111,-1.1111 L 4.7778,8.1 c 0.4656,0.3522 1.04,0.5667 1.6667,0.5667 c 0.8711,0 1.69,-0.4178 2.21,-1.1111 c 0.8089,0 1.5367,-0.4344 1.9289,-1.1111 L 14.7778,6.4444 l 0,12.2222 z M 19.2222,14.7778 c 0,0.9189 -0.7478,1.6667 -1.6667,1.6667 L 15.8889,16.4444 L 15.8889,7.5556 l 1.6667,0 c 0.9189,0 1.6667,0.7478 1.6667,1.6667 l 0,5.5556 z" fill="#000000" stroke="#000000" stroke-width="0.45" stroke-linecap="round" stroke-linejoin="round" vector-effect="non-scaling-stroke" paint-order="stroke fill" />
</svg>
