<svg xmlns="http://www.w3.org/2000/svg" viewBox="0 0 24 24" width="24" height="24" aria-labelledby="jail-title" role="img">
  <title>Jail</title>
  <path d="M 15.5414,12.6398 l 0,1.5238 c 0,0.2301 0.1867,0.4168 0.4168,0.4168 s 0.4168,-0.1867 0.4168,-0.4168 l 0,-1.5238 c 0.2488,-0.1445 0.4168,-0.4129 0.4168,-0.7207 c 0,-0.4594 -0.3738,-0.8332 -0.8336,-0.8332 c -0.4594,0 -0.8332,0.3738 -0.8332,0.8332 C 15.125,12.227 15.293,12.4953 15.5414,12.6398 z" fill="#000000" stroke="#000000" stroke-width="0.45" stroke-linecap="round" stroke-linejoin="round" vector-effect="non-scaling-stroke" paint-order="stroke fill" />
  <path d="M 22,5.75 L 22,2.4168 C 22,2.1867 21.8133,2 21.5832,2 L 2.4168,2 C 2.1867,2 2,2.1867 2,2.4168 l 0,3.3332 c 0,0.2062 0.1504,0.3773 0.3473,0.4105 l 0,13.3457 c -0.1969,0.0332 -0.3473,0.2039 -0.3473,0.4105 l 0,1.6664 C 2,21.8133 2.1867,22 2.4168,22 L 21.5832,22 c 0.2301,0 0.4168,-0.1867 0.4168,-0.4168 l 0,-1.6664 c 0,-0.2062 -0.1504,-0.3773 -0.3473,-0.4105 L 21.6527,6.1605 C 21.8496,6.1273 22,5.9566 22,5.75 z M 21.1664,21.1664 L 2.8336,21.1664 l 0,-0.8332 l 18.3328,0 L 21.1664,21.1664 z M 4.9863,13.25 l 0,6.25 L 3.1809,19.5 L 3.1809,13.25 L 4.9863,13.25 z M 3.1809,12.4164 L 3.1809,6.1668 l 1.8055,0 l 0,6.2496 L 3.1809,12.4164 z M 7.625,13.25 l 0,6.25 L 5.8195,19.5 L 5.8195,13.25 L 7.625,13.25 z M 5.8195,12.4164 L 5.8195,6.1668 l 1.8055,0 l 0,6.2496 L 5.8195,12.4164 z M 10.2637,13.25 l 0,6.25 l -1.8055,0 L 8.4582,13.25 L 10.2637,13.25 z M 8.4586,12.4164 L 8.4586,6.1668 l 1.8055,0 l 0,6.2496 L 8.4586,12.4164 z M 12.9027,13.25 l 0,2.7082 l 0,3.5418 l -1.8055,0 L 11.0973,13.25 L 12.9027,13.25 z M 11.0973,12.4164 L 11.0973,6.1668 l 1.8055,0 l 0,3.5414 l 0,2.7082 L 11.0973,12.4164 z M 18.1805,10.125 l 0,5.4164 L 13.7363,15.5414 l 0,0 L 13.7363,10.125 L 18.1805,10.125 z M 13.7363,9.2914 L 13.7363,6.1668 l 1.8055,0 l 0,3.1246 L 13.7363,9.2914 z M 18.1805,9.2914 l -1.8055,0 L 16.375,6.1668 l 1.8055,0 L 18.1805,9.2914 z M 18.1805,16.375 l 0,3.125 l -1.8055,0 l 0,-3.125 L 18.1805,16.375 z M 15.5414,16.375 l 0,3.125 l -1.8055,0 l 0,-3.125 L 15.5414,16.375 z M 20.8191,13.25 l 0,6.25 l -1.8055,0 l 0,-3.5418 c 0,-0.0004 0,-0.0012 0,-0.0016 l 0,-2.7066 L 20.8191,13.25 z M 19.0137,12.4164 l 0,-2.7082 l 0,-3.5414 l 1.8055,0 l 0,6.2496 L 19.0137,12.4164 z M 21.1664,5.3332 L 2.8336,5.3332 L 2.8336,2.8336 l 18.3328,0 L 21.1664,5.3332 z" fill="#000000" stroke="#000000" stroke-width="0.45" stroke-linecap="round" stroke-linejoin="round" vector-effect="non-scaling-stroke" paint-order="stroke fill" />
  <path d="M 5.4207,4.5 l 2.2566,0 c 0.2301,0 0.4168,-0.1867 0.4168,-0.4168 c 0,-0.2301 -0.1867,-0.4168 -0.4168,-0.4168 L 5.4207,3.6664 c -0.2301,0 -0.4168,0.1867 -0.4168,0.4168 C 5.0039,4.3133 5.1902,4.5 5.4207,4.5 z" fill="#000000" stroke="#000000" stroke-width="0.45" stroke-linecap="round" stroke-linejoin="round" vector-effect="non-scaling-stroke" paint-order="stroke fill" />
  <path d="M 4.2137,4.5004 l 0.0098,0 c 0.2301,0 0.4168,-0.1867 0.4168,-0.4168 c 0,-0.2301 -0.1867,-0.4168 -0.4168,-0.4168 l -0.0098,0 c -0.2301,0 -0.4168,0.1867 -0.4168,0.4168 C 3.7969,4.3137 3.9836,4.5004 4.2137,4.5004 z" fill="#000000" stroke="#000000" stroke-width="0.45" stroke-linecap="round" stroke-linejoin="round" vector-effect="non-scaling-stroke" paint-order="stroke fill" />
</svg>
