<svg xmlns="http://www.w3.org/2000/svg" viewBox="0 0 24 24" width="24" height="24" aria-labelledby="kelag-title" role="img">
  <title>Kelag</title>
  <path d="M 13.6293,3.2518 l 0.0039,0 l -0.0039,0 z M 13.6293,3.2518 l -1.4122,7.421 l 5.1169,0.0176 L 10.3707,20.7501 l 1.4122,-8.1643 l -5.1169,-0.0176 z M 13.6313,2 c -0.0333,0 -0.0685,0.002 -0.1017,0.0039 c -0.221,0.0176 -0.3677,0.0919 -0.5418,0.2093 a 1.2577,1.2577 0 0,0 -0.2621,0.2328 a 1.1091,1.1091 0 0,0 -0.0645,0.0841 L 5.6489,11.8132 c -0.2778,0.3795 -0.3169,0.8802 -0.1056,1.2988 c 0.2132,0.4186 0.6416,0.6846 1.113,0.6885 l 3.6127,0.0254 l -1.1364,6.6934 c -0.1076,0.5751 0.1995,1.1482 0.7394,1.379 a 1.2557,1.2557 0 0,0 0.4968,0.1017 c 0.3932,0 0.7159,-0.1839 0.9584,-0.5164 L 18.3511,11.4259 c 0.2778,-0.3795 0.3169,-0.8822 0.1056,-1.2988 c -0.2132,-0.4186 -0.6416,-0.6846 -1.113,-0.6885 l -3.6127,-0.0059 l 1.1247,-5.8856 a 1.2225,1.2225 0 0,0 0.0352,-0.2954 c 0,-0.6768 -0.5399,-1.2284 -1.2147,-1.2518 c -0.0156,0 -0.0293,0 -0.045,0 z" fill="#000000" stroke="#000000" stroke-width="0.45" stroke-linecap="round" stroke-linejoin="round" vector-effect="non-scaling-stroke" paint-order="stroke fill" />
</svg>
