<svg xmlns="http://www.w3.org/2000/svg" viewBox="0 0 24 24" width="24" height="24" aria-labelledby="kreuzbegl-title" role="img">
  <title>Kreuzbegl</title>
  <path d="M 7.5289,5.3431 c 0.1357,0.3927 0.5013,0.6567 0.91,0.6567 l 2.477,0 c 0.4087,0 0.7743,-0.264 0.91,-0.6567 c 0.1293,-0.3753 0.5357,-1.215 0.851,-1.4817 c 0.2763,-0.2343 0.406,-0.5973 0.338,-0.9473 c -0.0667,-0.3443 -0.307,-0.6163 -0.6427,-0.7273 c -1.0003,-0.3317 -1.8877,-0.22 -2.566,0.3223 c -0.1217,0.0973 -0.285,0.0973 -0.4067,0 C 8.7213,1.9671 7.8346,1.8554 6.8336,2.1871 c -0.3357,0.111 -0.5763,0.3827 -0.643,0.7273 c -0.068,0.35 0.0617,0.713 0.338,0.9473 C 6.8856,4.1638 7.4323,5.0631 7.5289,5.3431 z M 6.8453,3.0414 c 0.012,-0.0623 0.054,-0.1737 0.198,-0.2213 c 0.31,-0.1027 0.599,-0.1537 0.8663,-0.1537 c 0.4113,0 0.7707,0.1213 1.0737,0.3637 c 0.365,0.2923 0.875,0.2917 1.2393,0 c 0.5003,-0.4 1.1527,-0.4707 1.94,-0.21 c 0.144,0.0477 0.1857,0.1593 0.1977,0.2213 c 0.0223,0.1157 -0.0203,0.232 -0.1143,0.3117 c -0.5093,0.4313 -0.9647,1.5253 -1.05,1.773 c -0.0427,0.124 -0.1553,0.2073 -0.2797,0.2073 l -2.477,0 c -0.1247,0 -0.237,-0.0833 -0.2797,-0.2073 c -0.139,-0.4027 -0.7573,-1.398 -1.1997,-1.773 C 6.8656,3.2731 6.8226,3.1568 6.8453,3.0414 z" fill="#000000" stroke="#000000" stroke-width="0.45" stroke-linecap="round" stroke-linejoin="round" vector-effect="non-scaling-stroke" paint-order="stroke fill" />
  <path d="M 12.5109,6.6664 c 0,-0.184 -0.1493,-0.3333 -0.3333,-0.3333 c -0.062,0 -0.117,0.0217 -0.1667,0.051 c -0.0497,-0.0297 -0.1047,-0.051 -0.1667,-0.051 l -4,0 c -0.184,0 -0.3333,0.1493 -0.3333,0.3333 s 0.1493,0.3333 0.3333,0.3333 l 4,0 l 0,0.3333 l -3.6666,0 c -0.184,0 -0.3333,0.1493 -0.3333,0.3333 s 0.1493,0.3333 0.3333,0.3333 l 3.975,0 c 0.2987,0.2487 0.6667,0.391 1.0597,0.391 c 0.445,0 0.8637,-0.1737 1.1787,-0.4887 c 0.1303,-0.1303 0.1303,-0.341 0,-0.4713 c -0.1303,-0.1303 -0.341,-0.1303 -0.4713,0 c -0.3767,0.3767 -1.0293,0.3777 -1.4087,0.0047 L 12.5109,6.6664 z" fill="#000000" stroke="#000000" stroke-width="0.45" stroke-linecap="round" stroke-linejoin="round" vector-effect="non-scaling-stroke" paint-order="stroke fill" />
  <path d="M 9.1776,10.6664 c -2.137,0 -4.6666,2.7103 -4.6666,5 c 0,0.184 0.1493,0.3333 0.3333,0.3333 s 0.3333,-0.1493 0.3333,-0.3333 c 0,-1.9033 2.243,-4.3333 4,-4.3333 c 0.184,0 0.3333,-0.1493 0.3333,-0.3333 S 9.3616,10.6664 9.1776,10.6664 z" fill="#000000" stroke="#000000" stroke-width="0.45" stroke-linecap="round" stroke-linejoin="round" vector-effect="non-scaling-stroke" paint-order="stroke fill" />
  <path d="M 18.5109,12.6664 c -0.3437,0 -0.753,0.02 -1.1657,0.067 c -0.449,-0.822 -1.041,-1.529 -1.7883,-2.1013 L 13.1562,9.0004 c -0.397,-0.3047 -1.0227,-0.6673 -1.7487,-0.6673 l -2.5923,0 c -0.6413,0 -1.272,0.2183 -1.7667,0.6073 l -2.3593,1.719 c -2.459,1.9333 -3.2373,5.3213 -1.8503,8.056 c 0.5047,0.995 1.3477,2.1973 2.5003,2.2753 c 0.0903,0.006 0.1817,0.0093 0.2737,0.0093 l 6.4863,0 c 0.4893,0.6087 1.2383,1 2.0783,1 c 0.966,0 1.8113,-0.5183 2.2793,-1.2897 c 0.5957,0.185 1.326,0.2897 2.054,0.2897 c 1.603,0 3.3333,-0.5097 3.3333,-1.3333 l 0,-1.8333 l -0.0263,0 c 0.016,-0.054 0.0263,-0.1093 0.0263,-0.1667 l 0,-2 l 0,-1.8333 C 21.8442,12.912 19.7489,12.6664 18.5109,12.6664 z M 21.1522,13.83 c -0.007,0.007 -0.0127,0.014 -0.0223,0.0217 c -0.013,0.0103 -0.0287,0.0213 -0.0463,0.0327 c -0.022,0.014 -0.0487,0.0287 -0.0777,0.0433 c -0.0237,0.012 -0.0483,0.0243 -0.0767,0.0367 c -0.035,0.0157 -0.0763,0.0313 -0.1187,0.0473 c -0.034,0.0127 -0.0683,0.0253 -0.107,0.0383 c -0.0487,0.016 -0.1047,0.032 -0.161,0.0477 c -0.044,0.0123 -0.0873,0.025 -0.136,0.037 c -0.0633,0.0157 -0.1347,0.03 -0.2057,0.0443 c -0.0537,0.011 -0.1047,0.0223 -0.1627,0.0327 c -0.08,0.014 -0.1693,0.026 -0.2577,0.038 c -0.0603,0.0083 -0.1167,0.0177 -0.181,0.025 c -0.105,0.012 -0.2207,0.0203 -0.336,0.0287 c -0.0587,0.0043 -0.112,0.0103 -0.1733,0.014 c -0.182,0.01 -0.3747,0.016 -0.5803,0.016 s -0.3983,-0.006 -0.5803,-0.016 c -0.0613,-0.0033 -0.1147,-0.0093 -0.1733,-0.014 c -0.1153,-0.0087 -0.231,-0.017 -0.336,-0.0287 c -0.0643,-0.0073 -0.1207,-0.0167 -0.181,-0.025 c -0.0883,-0.012 -0.1777,-0.024 -0.2577,-0.038 c -0.058,-0.0103 -0.109,-0.0217 -0.1627,-0.0327 c -0.071,-0.0147 -0.1423,-0.029 -0.2057,-0.0443 c -0.0487,-0.012 -0.0917,-0.0243 -0.136,-0.037 c -0.0563,-0.0157 -0.112,-0.0317 -0.161,-0.0477 c -0.0387,-0.0127 -0.073,-0.0257 -0.107,-0.0383 c -0.0423,-0.016 -0.0837,-0.0317 -0.1187,-0.0473 c -0.0283,-0.0123 -0.053,-0.0247 -0.0767,-0.0367 c -0.029,-0.015 -0.0557,-0.0297 -0.0777,-0.0433 c -0.0177,-0.0113 -0.0333,-0.022 -0.0463,-0.0327 c -0.009,-0.007 -0.014,-0.0133 -0.0207,-0.02 c 0.004,-0.0033 0.0067,-0.0067 0.0113,-0.0103 c 0.0123,-0.0103 0.03,-0.022 0.0473,-0.0333 c 0.027,-0.0177 0.0607,-0.0363 0.1003,-0.0563 c 0.0217,-0.011 0.043,-0.0217 0.0683,-0.0327 c 0.0263,-0.0117 0.0567,-0.0233 0.087,-0.0353 c 0.036,-0.014 0.0753,-0.028 0.117,-0.042 c 0.03,-0.01 0.059,-0.0203 0.0923,-0.0303 c 0.0747,-0.0227 0.1563,-0.045 0.246,-0.0667 c 0.0413,-0.01 0.0893,-0.019 0.1343,-0.0283 c 0.0543,-0.0117 0.11,-0.023 0.169,-0.0337 c 0.065,-0.0117 0.134,-0.0227 0.2053,-0.0333 c 0.3757,-0.0567 0.8253,-0.096 1.3617,-0.096 C 20.0845,13.333 20.9655,13.658 21.1522,13.83 z M 16.0692,16.5724 c 0.03,0.0127 0.061,0.0247 0.0923,0.037 c 0.058,0.0227 0.1173,0.044 0.1787,0.065 c 0.0323,0.011 0.064,0.0217 0.097,0.032 c 0.0703,0.022 0.1427,0.0423 0.2167,0.062 c 0.026,0.007 0.051,0.0147 0.0773,0.021 c 0.101,0.0253 0.2043,0.0487 0.3103,0.0693 c 0.022,0.0043 0.045,0.0077 0.0673,0.012 c 0.085,0.016 0.171,0.0307 0.2583,0.0437 c 0.0373,0.0057 0.075,0.0103 0.1127,0.0153 c 0.075,0.01 0.1503,0.019 0.2267,0.027 c 0.04,0.004 0.08,0.008 0.12,0.0117 c 0.0787,0.007 0.1577,0.0123 0.237,0.017 c 0.0353,0.002 0.0707,0.0047 0.106,0.0063 c 0.114,0.005 0.2277,0.0083 0.341,0.0083 c 0.1133,0 0.227,-0.0033 0.341,-0.0083 c 0.036,-0.0017 0.072,-0.0043 0.108,-0.0063 c 0.0783,-0.0047 0.1567,-0.01 0.2347,-0.0167 c 0.041,-0.0037 0.082,-0.0077 0.1227,-0.012 c 0.075,-0.0077 0.1493,-0.0167 0.2233,-0.0267 c 0.0387,-0.005 0.0773,-0.01 0.1157,-0.0157 c 0.086,-0.0127 0.1707,-0.0273 0.2543,-0.043 c 0.0237,-0.0043 0.0477,-0.008 0.0713,-0.0127 c 0.1053,-0.021 0.2083,-0.044 0.3087,-0.069 c 0.028,-0.007 0.0547,-0.015 0.0823,-0.0223 c 0.0723,-0.0193 0.1433,-0.0393 0.212,-0.061 c 0.0337,-0.0107 0.066,-0.0217 0.0987,-0.0327 c 0.061,-0.0207 0.1203,-0.0423 0.178,-0.0647 c 0.031,-0.012 0.062,-0.0243 0.092,-0.037 c 0.06,-0.0253 0.117,-0.052 0.172,-0.0793 c 0.0173,-0.0087 0.037,-0.016 0.0537,-0.0247 l 0.002,1.1747 c -0.0783,0.1897 -0.9397,0.6123 -2.2987,0.68 c -0.122,0.0043 -0.24,0.0103 -0.3717,0.0103 c -0.7343,0 -1.4597,-0.1127 -2.0137,-0.3107 c -0.002,-0.0033 -0.0043,-0.0067 -0.0063,-0.01 c -0.0393,-0.0687 -0.081,-0.1357 -0.126,-0.2003 c -0.0067,-0.0097 -0.0143,-0.0187 -0.0213,-0.0283 c -0.0417,-0.0583 -0.0847,-0.1153 -0.131,-0.17 c -0.014,-0.0163 -0.029,-0.0313 -0.0433,-0.0477 c -0.041,-0.0463 -0.0823,-0.092 -0.1263,-0.1353 c -0.0227,-0.0223 -0.047,-0.0423 -0.0703,-0.064 c -0.0387,-0.0353 -0.0767,-0.0707 -0.117,-0.1037 c -0.004,-0.0033 -0.0073,-0.007 -0.0113,-0.01 c 0,-0.1303 0.0003,-0.42 0.0007,-0.7843 c 0.017,0.009 0.0373,0.0167 0.0547,0.0253 C 15.9542,16.521 16.0102,16.5474 16.0692,16.5724 z M 11.6656,20.333 L 5.613,20.333 c -0.077,0 -0.1537,-0.0027 -0.2293,-0.0077 c -0.655,-0.0443 -1.3477,-0.7233 -1.9503,-1.9117 c -1.2437,-2.452 -0.542,-5.493 1.658,-7.223 l 2.3593,-1.719 c 0.3873,-0.3043 0.872,-0.472 1.3643,-0.472 l 2.5923,0 c 0.539,0 1.0277,0.288 1.3587,0.541 l 2.4007,1.6313 c 0.5963,0.4573 1.0933,1.0167 1.4817,1.667 c -0.422,0.087 -0.83,0.2197 -1.1103,0.4143 c -0.0077,0.0053 -0.0153,0.0107 -0.023,0.016 c -0.0423,0.0307 -0.081,0.063 -0.1163,0.097 c -0.015,0.0143 -0.0283,0.029 -0.042,0.044 c -0.0263,0.029 -0.0517,0.0583 -0.0723,0.0897 c -0.0173,0.0257 -0.03,0.0533 -0.0433,0.0807 c -0.0117,0.0247 -0.0257,0.0483 -0.034,0.0743 c -0.0183,0.0563 -0.0297,0.1153 -0.0297,0.178 l 0,1.8333 l 0,1.1963 c -0.1123,-0.0457 -0.2287,-0.0823 -0.348,-0.1123 c -0.0157,-0.004 -0.0313,-0.0083 -0.047,-0.012 c -0.1167,-0.0273 -0.2357,-0.048 -0.3573,-0.0593 c -0.0137,-0.0013 -0.0273,-0.001 -0.041,-0.002 c -0.0683,-0.0053 -0.137,-0.0103 -0.2067,-0.0103 c -0.0367,0 -0.072,0.004 -0.1083,0.0053 c -0.0283,0.001 -0.0567,0.0023 -0.085,0.0043 c -0.1187,0.0087 -0.236,0.0223 -0.35,0.046 c -0.0023,0.0003 -0.0043,0.0003 -0.0067,0.001 c -0.009,0.002 -0.0173,0.0057 -0.0263,0.0077 c -0.1043,0.023 -0.206,0.0533 -0.3053,0.0887 c -0.036,0.0127 -0.072,0.0253 -0.1073,0.0393 c -0.099,0.0397 -0.1957,0.0837 -0.2887,0.1347 c -0.035,0.019 -0.0677,0.041 -0.1017,0.0617 c -0.065,0.0397 -0.1283,0.0813 -0.1893,0.1263 c -0.036,0.0263 -0.0723,0.052 -0.107,0.08 c -0.0783,0.0633 -0.153,0.131 -0.2237,0.203 c -0.031,0.0313 -0.0593,0.0647 -0.0887,0.0977 c -0.05,0.056 -0.0977,0.1143 -0.1427,0.1743 c -0.0243,0.0327 -0.05,0.0637 -0.073,0.0973 c -0.0587,0.0857 -0.111,0.1757 -0.1593,0.268 c -0.0187,0.036 -0.0357,0.0727 -0.053,0.1097 c -0.038,0.0817 -0.072,0.165 -0.1017,0.251 c -0.0087,0.025 -0.0193,0.0487 -0.027,0.074 c -0.0343,0.1093 -0.0593,0.2227 -0.0793,0.3373 c -0.0027,0.0147 -0.008,0.0287 -0.0103,0.0433 c -0.0027,0.018 -0.0027,0.0373 -0.005,0.0553 c -0.0107,0.0783 -0.0173,0.1577 -0.021,0.238 c -0.0013,0.0287 -0.004,0.057 -0.0043,0.086 c 0,0.0123 -0.002,0.0243 -0.002,0.0367 c 0,0.053 0.005,0.1047 0.008,0.1567 C 11.5316,19.778 11.5786,20.0673 11.6656,20.333 z M 14.1776,21.333 c -1.095,0 -1.986,-0.8847 -1.9987,-1.9763 c 0,-0.026 0.0007,-0.0517 0.0017,-0.0777 c 0.001,-0.0367 0.0027,-0.073 0.0057,-0.1093 c 0.0023,-0.0307 0.006,-0.061 0.0097,-0.0913 c 0.004,-0.031 0.0087,-0.0617 0.014,-0.092 c 0.015,-0.0867 0.0343,-0.1723 0.0607,-0.2553 c 0.0027,-0.009 0.0067,-0.0173 0.0097,-0.026 c 0.028,-0.0837 0.0617,-0.1653 0.1007,-0.2443 c 0.0037,-0.0077 0.0073,-0.0153 0.011,-0.0227 c 0.1797,-0.3527 0.4633,-0.6507 0.807,-0.847 c 0.0013,-0.0007 0.0023,-0.0017 0.0037,-0.0023 c 0.078,-0.0443 0.16,-0.0817 0.2433,-0.115 c 0.0217,-0.0087 0.0437,-0.0163 0.0653,-0.024 c 0.074,-0.0263 0.1493,-0.0493 0.227,-0.0663 c 0.0107,-0.0023 0.0207,-0.006 0.0313,-0.008 c 0.0963,-0.0197 0.193,-0.0303 0.2893,-0.036 c 0.0183,-0.001 0.0367,-0.0023 0.0553,-0.0027 c 0.0983,-0.003 0.1963,-0.0003 0.293,0.011 c 0.0057,0.0007 0.011,0.0017 0.0163,0.0027 c 0.102,0.0127 0.203,0.033 0.3023,0.0617 c 0.0013,0.0003 0.003,0.0007 0.0043,0.001 c 0.1023,0.0297 0.2027,0.068 0.3007,0.1143 c 0.09,0.0427 0.1777,0.0903 0.2597,0.1453 l 0.0133,0.0093 c 0.0117,0.008 0.0223,0.017 0.0337,0.025 c 0.0553,0.0397 0.1083,0.0817 0.1593,0.1267 c 0.0123,0.0107 0.0243,0.022 0.0363,0.033 c 0.051,0.0473 0.0997,0.0967 0.1453,0.1487 c 0.0047,0.0053 0.0093,0.01 0.014,0.0153 c 0.106,0.1233 0.1973,0.2597 0.2707,0.406 c 0.017,0.0333 0.034,0.067 0.049,0.1013 c 0.0253,0.0583 0.0473,0.1173 0.067,0.177 c 0.0013,0.0043 0.0033,0.0087 0.0047,0.013 c 0.0193,0.0603 0.035,0.1217 0.0483,0.1833 c 0.001,0.005 0.0027,0.0097 0.0037,0.0143 c 0.0127,0.0613 0.022,0.1233 0.029,0.1857 c 0.0007,0.0057 0.002,0.0107 0.0027,0.0163 c 0.007,0.068 0.0107,0.1363 0.0107,0.2053 c 0,0.0707 -0.004,0.141 -0.0113,0.211 c -0.001,0.0103 -0.0033,0.02 -0.0047,0.0303 c -0.0073,0.0603 -0.0163,0.1203 -0.0293,0.1793 c -0.0013,0.0067 -0.0037,0.013 -0.005,0.0197 c -0.0143,0.0633 -0.0313,0.126 -0.052,0.188 c -0.001,0.0027 -0.002,0.0053 -0.003,0.008 c -0.022,0.0647 -0.0473,0.1283 -0.076,0.1913 C 15.6806,20.851 14.9849,21.333 14.1776,21.333 z M 18.5109,20.333 c -0.6327,0 -1.2623,-0.0843 -1.7797,-0.2353 c 0.0003,-0.0007 0.0003,-0.0013 0.0003,-0.002 c 0.0323,-0.108 0.056,-0.2193 0.0747,-0.3327 c 0.0043,-0.027 0.0087,-0.0537 0.0123,-0.081 c 0.015,-0.1147 0.0257,-0.2303 0.0257,-0.349 c 0,-0.0863 -0.0047,-0.172 -0.013,-0.257 c -0.003,-0.0307 -0.0083,-0.0603 -0.0123,-0.0907 c -0.0057,-0.043 -0.0097,-0.0863 -0.0173,-0.1287 c 0.5057,0.0933 1.093,0.143 1.7093,0.143 c 0.7967,0 1.9483,-0.1017 2.668,-0.4197 l 0.002,1.0627 C 21.0955,19.849 20.0839,20.333 18.5109,20.333 z M 18.5109,16.333 c -1.5677,0 -2.577,-0.4803 -2.665,-0.6647 c 0.0003,-0.38 0.0007,-0.7657 0.0007,-1.087 c 0.0083,0.0037 0.0183,0.0067 0.027,0.0103 c 0.0797,0.034 0.163,0.066 0.2517,0.0953 c 0.0047,0.0017 0.0093,0.0033 0.0143,0.0047 c 0.0907,0.0293 0.1863,0.0557 0.284,0.08 c 0.032,0.008 0.065,0.0153 0.0977,0.0227 c 0.0713,0.0163 0.1433,0.032 0.217,0.046 c 0.0357,0.007 0.071,0.0137 0.107,0.02 c 0.081,0.0143 0.1623,0.027 0.2447,0.039 c 0.026,0.0037 0.0517,0.008 0.0777,0.0117 c 0.1077,0.0143 0.2153,0.027 0.3223,0.0373 c 0.027,0.0027 0.0533,0.0047 0.0803,0.007 c 0.0823,0.0073 0.1637,0.014 0.2443,0.0193 c 0.035,0.0023 0.069,0.0043 0.1033,0.0063 c 0.0747,0.0043 0.1473,0.0077 0.2193,0.0103 c 0.0303,0.001 0.0607,0.0023 0.0903,0.0033 c 0.0977,0.0027 0.193,0.0043 0.283,0.0043 c 0.0897,0 0.185,-0.0017 0.2827,-0.0043 c 0.0303,-0.001 0.061,-0.0023 0.0917,-0.0033 c 0.0713,-0.0027 0.1437,-0.006 0.218,-0.0103 c 0.035,-0.002 0.0693,-0.004 0.1047,-0.0063 c 0.0807,-0.0053 0.1623,-0.012 0.2447,-0.0197 c 0.0267,-0.0023 0.0527,-0.0043 0.0793,-0.007 c 0.1073,-0.0107 0.215,-0.023 0.3227,-0.0377 c 0.0263,-0.0037 0.0523,-0.008 0.0787,-0.0117 c 0.082,-0.0117 0.1633,-0.0247 0.244,-0.039 c 0.0363,-0.0063 0.0717,-0.0133 0.1073,-0.02 c 0.0737,-0.0143 0.146,-0.0297 0.2177,-0.0463 c 0.0327,-0.0077 0.0653,-0.0147 0.0973,-0.0227 c 0.0997,-0.025 0.197,-0.0517 0.2893,-0.0817 c 0.0047,-0.0017 0.0087,-0.0033 0.0133,-0.0047 c 0.087,-0.0287 0.1693,-0.0603 0.2477,-0.0937 c 0.0093,-0.004 0.0203,-0.0073 0.0297,-0.0113 l 0.002,1.0627 C 21.0955,15.849 20.0839,16.333 18.5109,16.333 z" fill="#000000" stroke="#000000" stroke-width="0.45" stroke-linecap="round" stroke-linejoin="round" vector-effect="non-scaling-stroke" paint-order="stroke fill" />
</svg>
