<svg xmlns="http://www.w3.org/2000/svg" viewBox="0 0 24 24" width="24" height="24" aria-labelledby="lakeside-title" role="img">
  <title>Lakeside</title>
  <path d="M 14.2222,18.6667 L 14.2222,5.3333 c 0,-0.5167 0,-0.7744 -0.0567,-0.9867 a 1.6667,1.6667 0 0,0 -1.1778,-1.1778 C 12.7744,3.1111 12.5156,3.1111 12,3.1111 s -0.7744,0 -0.9867,0.0567 a 1.6667,1.6667 0 0,0 -1.1778,1.1778 C 9.7778,4.56 9.7778,4.8178 9.7778,5.3333 l 0,13.3333 c 0,0.5167 0,0.7756 0.0567,0.9867 a 1.6667,1.6667 0 0,0 1.1778,1.1778 c 0.2122,0.0578 0.4711,0.0578 0.9878,0.0578 s 0.7744,0 0.9867,-0.0567 a 1.6667,1.6667 0 0,0 1.1778,-1.1778 C 14.2222,19.4411 14.2222,19.1822 14.2222,18.6667 m 7.7778,-11.1111 L 22,5.3333 c 0,-0.5167 0,-0.7744 -0.0567,-0.9867 a 1.6667,1.6667 0 0,0 -1.1778,-1.1778 C 20.5522,3.1111 20.2933,3.1111 19.7778,3.1111 s -0.7756,0 -0.9867,0.0567 a 1.6667,1.6667 0 0,0 -1.1778,1.1778 C 17.5556,4.56 17.5556,4.8178 17.5556,5.3333 l 0,2.2222 c 0,0.5167 0,0.7744 0.0567,0.9867 a 1.6667,1.6667 0 0,0 1.1778,1.1778 c 0.2122,0.0578 0.4711,0.0578 0.9878,0.0578 s 0.7756,0 0.9867,-0.0567 a 1.6667,1.6667 0 0,0 1.1778,-1.1778 C 22,8.3289 22,8.0711 22,7.5556 M 6.4444,12 L 6.4444,5.3333 c 0,-0.5167 0,-0.7744 -0.0567,-0.9867 a 1.6667,1.6667 0 0,0 -1.1778,-1.1778 C 4.9956,3.1111 4.7378,3.1111 4.2222,3.1111 s -0.7744,0 -0.9867,0.0567 a 1.6667,1.6667 0 0,0 -1.1778,1.1778 C 2,4.56 2,4.8178 2,5.3333 l 0,6.6667 c 0,0.5167 0,0.7744 0.0567,0.9867 a 1.6667,1.6667 0 0,0 1.1778,1.1778 C 3.4489,14.2222 3.7067,14.2222 4.2222,14.2222 s 0.7744,0 0.9867,-0.0567 a 1.6667,1.6667 0 0,0 1.1778,-1.1778 C 6.4444,12.7744 6.4444,12.5156 6.4444,12" fill="#000000" stroke="#000000" stroke-width="0.45" stroke-linecap="round" stroke-linejoin="round" vector-effect="non-scaling-stroke" paint-order="stroke fill" />
</svg>
