<svg xmlns="http://www.w3.org/2000/svg" viewBox="0 0 24 24" width="24" height="24" aria-labelledby="le_burger-title" role="img">
  <title>Le Burger</title>
  <path d="M 19.7571,17.8619 c 0.59,0.2105 1.0524,0.6443 1.0524,1.281 c 0,1.3348 -1.2919,2.2371 -2.6262,2.2857 c -1.3352,0.0495 -3.34,0.0952 -6.1833,0.0952 s -4.8476,-0.0457 -6.1833,-0.0952 C 4.4824,21.3805 3.1905,20.4781 3.1905,19.1429 c 0,-0.6367 0.4629,-1.0705 1.0529,-1.281" fill="#000000" stroke="#000000" stroke-width="0.45" stroke-linecap="round" stroke-linejoin="round" vector-effect="non-scaling-stroke" paint-order="stroke fill" />
  <path d="M 2.4381,14.3357 a 2.3476,2.3476 0 0,0 -0.4348,1.4452 c 0.0129,0.3976 0.0667,0.8133 0.1943,1.1881 c 0.3,0.8833 1.3814,0.9267 2.3133,0.8833 c 0.4943,-0.0229 1.02,0.0181 1.4024,0.2162 c 1.5381,0.7971 3.1324,0.7971 4.6705,0 c 0.9629,-0.499 1.869,-0.499 2.8319,0 c 1.5381,0.7971 3.1324,0.7971 4.671,0 c 0.3824,-0.1981 0.9076,-0.239 1.4019,-0.2162 c 0.9319,0.0429 2.0133,0 2.3133,-0.8833 a 3.3333,3.3333 0 0,0 0.0881,-0.3124 c 0.1862,-0.8129 -0.04,-1.6324 -0.5205,-2.2419" fill="#000000" stroke="#000000" stroke-width="0.45" stroke-linecap="round" stroke-linejoin="round" vector-effect="non-scaling-stroke" paint-order="stroke fill" />
  <path d="M 3.1905,8.4286 c 0,-3.2648 2.5629,-5.7971 5.8252,-5.9057 C 9.8871,2.4943 10.8786,2.4762 12,2.4762 s 2.1129,0.0176 2.9843,0.0467 C 18.2462,2.6314 20.8095,5.1638 20.8095,8.4286 c 0,0.6 -0.0476,1.14 -0.1105,1.5919 c -0.1276,0.9186 -0.8448,1.5767 -1.7657,1.6829 c -1.2381,0.1429 -3.3933,0.2967 -6.9333,0.2967 s -5.6952,-0.1538 -6.9333,-0.2967 c -0.921,-0.1062 -1.6381,-0.7643 -1.7657,-1.6829 A 11.4286,11.4286 0 0,1 3.1905,8.4286" fill="#000000" stroke="#000000" stroke-width="0.45" stroke-linecap="round" stroke-linejoin="round" vector-effect="non-scaling-stroke" paint-order="stroke fill" />
  <path d="m 3.8805,11.161 l -0.2819,0.0119 c -0.7348,0.0319 -1.4352,0.3619 -1.549,1.0886 C 2.019,12.4567 2,12.6852 2,12.9524 s 0.019,0.4962 0.0495,0.6914 c 0.1143,0.7267 0.8143,1.0567 1.549,1.0886 C 4.8667,14.7876 7.3857,14.8571 12,14.8571 c 4.4286,0 6.9267,-0.0643 8.2419,-0.1181 c 0.8338,-0.0343 1.6281,-0.43 1.7281,-1.2586 q 0.029,-0.2357 0.03,-0.5281 c 0,-0.1952 -0.0114,-0.3705 -0.03,-0.5276 c -0.1,-0.8286 -0.8943,-1.2248 -1.7276,-1.2586 l -0.1229,-0.0048 M 17.9524,7.7143 L 17.7143,7.7143 m -2.619,-1.9048 L 14.8571,5.8095 m -0.4762,3.3333 l 0.2381,0" fill="#000000" stroke="#000000" stroke-width="0.45" stroke-linecap="round" stroke-linejoin="round" vector-effect="non-scaling-stroke" paint-order="stroke fill" />
</svg>
