<svg xmlns="http://www.w3.org/2000/svg" viewBox="0 0 24 24" width="24" height="24" aria-labelledby="lendbahnhof-title" role="img">
  <title>Lendbahnhof</title>
  <path d="M 17,2 L 7,2 A 2.8571,2.8571 0 0,0 4.1429,4.8571 L 4.1429,16.2857 a 2.8571,2.8571 0 0,0 2.8571,2.8571 l 0.7143,0 L 6.4286,20.8571 a 0.7143,0.7143 0 1,0 1.1429,0.8571 L 9.5,19.1429 l 5,0 l 1.9286,2.5714 a 0.7143,0.7143 0 1,0 1.1429,-0.8571 L 16.2857,19.1429 l 0.7143,0 a 2.8571,2.8571 0 0,0 2.8571,-2.8571 L 19.8571,4.8571 A 2.8571,2.8571 0 0,0 17,2 Z M 5.5714,10.5714 L 5.5714,7 l 5.7143,0 l 0,3.5714 Z M 12.7143,7 l 5.7143,0 l 0,3.5714 L 12.7143,10.5714 Z M 7,3.4286 L 17,3.4286 a 1.4286,1.4286 0 0,1 1.4286,1.4286 l 0,0.7143 L 5.5714,5.5714 L 5.5714,4.8571 A 1.4286,1.4286 0 0,1 7,3.4286 Z M 17,17.7143 L 7,17.7143 a 1.4286,1.4286 0 0,1 -1.4286,-1.4286 L 5.5714,12 L 18.4286,12 l 0,4.2857 A 1.4286,1.4286 0 0,1 17,17.7143 Z M 9.1429,15.2143 a 1.0714,1.0714 0 1,1 -1.0714,-1.0714 A 1.0714,1.0714 0 0,1 9.1429,15.2143 Z M 17,15.2143 a 1.0714,1.0714 0 1,1 -1.0714,-1.0714 A 1.0714,1.0714 0 0,1 17,15.2143 Z" fill="#000000" stroke="#000000" stroke-width="0.45" stroke-linecap="round" stroke-linejoin="round" vector-effect="non-scaling-stroke" paint-order="stroke fill" />
</svg>
