<svg xmlns="http://www.w3.org/2000/svg" viewBox="0 0 24 24" width="24" height="24" aria-labelledby="lendcafe-title" role="img">
  <title>Lendcafe</title>
  <path d="M 17.9166,11.3485 l 0,-0.7574 c 0,-0.4332 -0.3512,-0.7844 -0.7844,-0.7844 L 5.8119,9.8067 c -0.4332,0 -0.7844,0.3512 -0.7844,0.7844 l 0,2.5367 c 0,3.5535 2.891,6.4449 6.4449,6.4449 c 2.1766,0 4.1012,-1.0871 5.2683,-2.7441 l 1.2551,0 c 1.5121,0 2.7422,-1.2301 2.7422,-2.7426 c -0.0437,-1.8184 -1.5387,-2.782 -2.8211,-2.7371 z M 11.4721,18.0035 c -2.6887,0 -4.8758,-2.1875 -4.8758,-4.8758 l 0,-1.7519 L 16.3478,11.3758 l 0,1.7519 c 0,2.6887 -2.1875,4.8758 -4.8758,4.8758 z M 17.558,15.2407 c 0.2738,-0.8059 0.3777,-1.5504 0.3609,-2.2933 c 0.6395,-0.0902 1.2363,0.484 1.2312,1.1387 c -0.0445,0.7309 -0.5434,1.2441 -1.5922,1.1547 z M 11.8791,7.3516 l -0.9875,0 l 0,0.9875 c 0,0.7687 -1.1781,0.7687 -1.1781,0 l 0,-0.9875 l -0.9875,0 c -0.7797,0 -0.7797,-1.1781 0,-1.1781 l 0.9875,0 l 0,-0.9875 c 0,-0.7797 1.1781,-0.7797 1.1781,0 l 0,0.9875 l 0.9875,0 c 0.7922,0 0.7922,1.1781 0,1.1781 z M 15.2654,4.7528 l -0.9871,0 l 0,0.9875 c -0.0082,0.7922 -1.1875,0.7914 -1.1785,0 l 0,-0.9875 l -0.9875,0 c -0.7859,0 -0.7859,-1.1781 0,-1.1781 l 0.9875,0 L 13.0998,2.5868 c 0,-0.7824 1.1785,-0.7824 1.1785,0 l 0,0.9875 l 0.9871,0 c 0.7867,0 0.7867,1.1781 0,1.1781 z M 18.9443,22 L 4.0495,22 c -1.05,0 -1.05,-1.5687 0,-1.5687 l 14.8948,0 c 1.0457,0 1.0457,1.5687 0,1.5687 z" fill="#000000" stroke="#000000" stroke-width="0.45" stroke-linecap="round" stroke-linejoin="round" vector-effect="non-scaling-stroke" paint-order="stroke fill" />
</svg>
