<svg xmlns="http://www.w3.org/2000/svg" viewBox="0 0 24 24" width="24" height="24" aria-labelledby="loretto-title" role="img">
  <title>Loretto</title>
  <path d="M 21.9574,5.8359 a 1.4205,1.4205 0 0,0 -0.6473,-0.8839 a 17.9894,17.9894 0 0,0 -18.6224,0 a 1.4285,1.4285 0 0,0 -0.4794,1.9642 l 8.571,14.0413 a 1.4285,1.4285 0 0,0 2.4427,0 l 8.571,-14.0413 A 1.4124,1.4124 0 0,0 21.9574,5.8359 Z M 6.2483,10.791 a 2.1428,2.1428 0 1,1 2.1847,3.5793 Z M 14.0979,16.7684 A 2.1428,2.1428 0 0,1 16.2844,13.19 Z M 17.038,11.9535 a 3.5713,3.5713 0 0,0 -3.6945,6.0506 L 11.9989,20.2102 L 9.1865,15.606 a 3.5713,3.5713 0 1,0 -3.6918,-6.0497 L 4.9278,8.6268 a 13.5708,13.5708 0 0,1 14.1413,0 Z M 19.8146,7.4064 a 15.01,15.01 0 0,0 -15.6314,0 L 3.4279,6.1725 a 16.5707,16.5707 0 0,1 17.1421,0 Z" fill="#000000" stroke="#000000" stroke-width="0.45" stroke-linecap="round" stroke-linejoin="round" vector-effect="non-scaling-stroke" paint-order="stroke fill" />
</svg>
