<svg xmlns="http://www.w3.org/2000/svg" viewBox="0 0 24 24" width="24" height="24" aria-labelledby="mc_mullens-title" role="img">
  <title>Mc Mullens</title>
  <path d="M 21,12 c 0,2.305 -0.867,4.4085 -2.292,6.0005 L 14.5,13.793 l 0,-0.371 c 0,-1.3585 -0.551,-2.662 -1.531,-3.6225 a 0.252,0.252 0 0,1 -0.076,-0.18 L 12.893,5.35 c 0,-0.1935 -0.16,-0.35 -0.3575,-0.35 l -0.8925,0 a 0.3535,0.3535 0 0,0 -0.3575,0.35 l 0,4.2635 a 0.248,0.248 0 0,1 -0.0845,0.186 A 4.992,4.992 0 0,0 9.5,13.543 l 0,4.684 c 0,0.427 0.353,0.773 0.7885,0.773 l 3.37,0 c 0.465,0 0.8415,-0.3695 0.8415,-0.825 l 0,-2.968 l 3.5005,3.501 A 8.9665,8.9665 0 0,1 12,21 c -4.9705,0 -9,-4.0295 -9,-9 c 0,-2.369 0.915,-4.524 2.4115,-6.1315 l 3.735,3.735 a 0.5,0.5 0 0,0 0.707,-0.707 l -3.721,-3.721 A 8.965,8.965 0 0,1 12,3 c 4.9705,0 9,4.0295 9,9 m 1,0 c 0,5.523 -4.477,10 -10,10 S 2,17.523 2,12 S 6.477,2 12,2 s 10,4.477 10,10 m -11.5,1 l 3,0 l 0,2.5 l -3,0 z" fill="#000000" stroke="#000000" stroke-width="0.45" stroke-linecap="round" stroke-linejoin="round" vector-effect="non-scaling-stroke" paint-order="stroke fill" fill-rule="evenodd" />
</svg>
