<svg xmlns="http://www.w3.org/2000/svg" viewBox="0 0 24 24" width="24" height="24" aria-labelledby="mensa-title" role="img">
  <title>Mensa</title>
  <path d="M 12.7155,11.2856 a 1.0716,1.0716 0 1,1 1.0716,1.0716 A 1.0716,1.0716 0 0,1 12.7155,11.2856 Z M 20.5557,8.5514 A 7.1517,7.1517 0 0,1 13.4299,15.2147 L 10.5724,15.2147 a 1.0716,1.0716 0 0,0 0,2.1431 l 5.0006,0 a 0.7144,0.7144 0 0,1 0,1.4287 L 11.2868,18.7865 l 0,1.4287 l 2.8575,0 a 0.7144,0.7144 0 0,1 0,1.4287 L 9.1437,21.644 A 7.1437,7.1437 0 0,1 9.1437,7.3566 L 19.502,7.3566 a 1.0716,1.0716 0 0,0 0,-2.1431 L 12.0012,5.2135 a 2.1431,2.1431 0 0,1 -2.1431,-2.1431 a 0.7144,0.7144 0 0,1 1.4287,0 a 0.7144,0.7144 0 0,0 0.7144,0.7144 l 7.5009,0 a 2.5003,2.5003 0 0,1 1.0537,4.7666 Z M 5.1075,18.5445 L 8.0739,16.4255 c 0,-0.0455 0,-0.0893 0,-0.1393 a 2.5003,2.5003 0 0,1 0.0893,-0.6679 L 3.518,13.5064 a 5.6917,5.6917 0 0,0 1.593,5.0381 Z M 8.5901,17.8123 L 6.2969,19.4527 A 5.6792,5.6792 0 0,0 9.1437,20.2152 l 0.7144,0 L 9.8581,18.682 A 2.5119,2.5119 0 0,1 8.5936,17.8123 Z M 9.8581,13.8904 L 9.8581,8.7853 L 9.1437,8.7853 a 5.7212,5.7212 0 0,0 -5.1988,3.3468 l 4.989,2.2672 A 2.5003,2.5003 0 0,1 9.8581,13.8904 Z M 19.1002,8.7853 L 11.2868,8.7853 l 0,5.0006 l 2.1431,0 A 5.723,5.723 0 0,0 19.1002,8.7853 Z" fill="#000000" stroke="#000000" stroke-width="0.45" stroke-linecap="round" stroke-linejoin="round" vector-effect="non-scaling-stroke" paint-order="stroke fill" />
</svg>
