<svg xmlns="http://www.w3.org/2000/svg" viewBox="0 0 24 24" width="24" height="24" aria-labelledby="neuer_platz-title" role="img">
  <title>Neuer Platz</title>
  <path d="M 21.2857,18.7855 L 18.4286,18.7855 L 18.4286,16.6426 l 2.1429,0 a 0.7143,0.7143 0 0,0 0.6929,-0.8875 l -2.8571,-11.4286 a 0.7143,0.7143 0 0,0 -1.3857,0 l -2.8571,11.4286 A 0.7143,0.7143 0 0,0 14.8571,16.6426 l 2.1429,0 l 0,2.1429 L 11.2857,18.7855 L 11.2857,17.3569 l 0.7143,0 a 0.7143,0.7143 0 0,0 0,-1.4286 l -0.7143,0 L 11.2857,14.4998 l 0.7143,0 a 0.7143,0.7143 0 0,0 0,-1.4286 L 4.1429,13.0712 a 0.7143,0.7143 0 0,0 0,1.4286 l 0.7143,0 l 0,1.4286 L 4.1429,15.9284 a 0.7143,0.7143 0 0,0 0,1.4286 l 0.7143,0 l 0,1.4286 L 2.7143,18.7855 a 0.7143,0.7143 0 0,0 0,1.4286 L 21.2857,20.2141 a 0.7143,0.7143 0 0,0 0,-1.4286 Z M 17.7143,7.4462 l 1.942,7.7679 l -3.8839,0 Z M 6.2857,14.4998 l 3.5714,0 l 0,1.4286 L 6.2857,15.9284 Z M 6.2857,17.3569 l 3.5714,0 l 0,1.4286 L 6.2857,18.7855 Z M 10.9286,10.2141 A 2.5,2.5 0 1,0 8.4286,7.7141 A 2.5,2.5 0 0,0 10.9286,10.2141 Z M 10.9286,6.6426 a 1.0714,1.0714 0 1,1 -1.0714,1.0714 A 1.0714,1.0714 0 0,1 10.9286,6.6426 Z" fill="#000000" stroke="#000000" stroke-width="0.45" stroke-linecap="round" stroke-linejoin="round" vector-effect="non-scaling-stroke" paint-order="stroke fill" />
</svg>
