<svg xmlns="http://www.w3.org/2000/svg" viewBox="0 0 24 24" width="24" height="24" aria-labelledby="ruthar-title" role="img">
  <title>Ruthar</title>
  <path d="M 3.1111,22 L 3.1111,6.4444 l 4.4444,0 q 0,-1.8567 1.2933,-3.1511 T 12,2 q 1.8567,0 3.1511,1.2933 T 16.4444,6.4444 l 4.4444,0 l 0,15.5556 L 3.1111,22 Z M 4.2222,20.8889 l 15.5556,0 L 19.7778,7.5556 L 4.2222,7.5556 l 0,13.3333 Z M 12,13.1111 q 1.8567,0 3.1511,-1.2933 T 16.4444,8.6667 l -1.1111,0 q 0,1.3889 -0.9722,2.3611 T 12,12 q -1.3889,0 -2.3611,-0.9722 T 8.6667,8.6667 L 7.5556,8.6667 q 0,1.8567 1.2933,3.1511 T 12,13.1111 Z M 8.6667,6.4444 l 6.6667,0 q 0,-1.3889 -0.9722,-2.3611 T 12,3.1111 q -1.3889,0 -2.3611,0.9722 T 8.6667,6.4444 Z M 4.2222,20.8889 L 4.2222,7.5556 l 0,13.3333 Z" fill="#000000" stroke="#000000" stroke-width="0.45" stroke-linecap="round" stroke-linejoin="round" vector-effect="non-scaling-stroke" paint-order="stroke fill" />
</svg>
