<svg xmlns="http://www.w3.org/2000/svg" viewBox="0 0 24 24" width="24" height="24" aria-labelledby="stadtwerke-title" role="img">
  <title>Stadtwerke</title>
  <path d="M 17.7143,13.4286 a 0.7143,0.7143 0 0,1 -0.7143,0.7143 l -0.7143,0 l 0,0.7143 a 0.7143,0.7143 0 0,1 -1.4286,0 l 0,-0.7143 l -0.7143,0 a 0.7143,0.7143 0 0,1 0,-1.4286 l 0.7143,0 l 0,-0.7143 a 0.7143,0.7143 0 0,1 1.4286,0 l 0,0.7143 l 0.7143,0 A 0.7143,0.7143 0 0,1 17.7143,13.4286 Z M 9.8571,12.7143 L 7,12.7143 a 0.7143,0.7143 0 0,0 0,1.4286 l 2.8571,0 a 0.7143,0.7143 0 0,0 0,-1.4286 Z M 22,9.1429 l 0,8.5714 a 1.4286,1.4286 0 0,1 -1.4286,1.4286 L 3.4286,19.1429 a 1.4286,1.4286 0 0,1 -1.4286,-1.4286 L 2,9.1429 A 1.4286,1.4286 0 0,1 3.4286,7.7143 L 4.8571,7.7143 L 4.8571,6.2857 A 1.4286,1.4286 0 0,1 6.2857,4.8571 L 9.1429,4.8571 a 1.4286,1.4286 0 0,1 1.4286,1.4286 L 10.5714,7.7143 l 2.8571,0 L 13.4286,6.2857 a 1.4286,1.4286 0 0,1 1.4286,-1.4286 l 2.8571,0 a 1.4286,1.4286 0 0,1 1.4286,1.4286 L 19.1429,7.7143 l 1.4286,0 A 1.4286,1.4286 0 0,1 22,9.1429 Z M 14.8571,7.7143 l 2.8571,0 L 17.7143,6.2857 L 14.8571,6.2857 Z M 6.2857,7.7143 L 9.1429,7.7143 L 9.1429,6.2857 L 6.2857,6.2857 Z M 20.5714,17.7143 L 20.5714,9.1429 L 3.4286,9.1429 l 0,8.5714 L 20.5714,17.7143 Z" fill="#000000" stroke="#000000" stroke-width="0.45" stroke-linecap="round" stroke-linejoin="round" vector-effect="non-scaling-stroke" paint-order="stroke fill" />
</svg>
