<svg xmlns="http://www.w3.org/2000/svg" viewBox="0 0 24 24" width="24" height="24" aria-labelledby="strandbad-title" role="img">
  <title>Strandbad</title>
  <path d="M 21.9948,11.8795 A 10.0363,10.0363 0 0,0 5.1918,5.3743 a 9.9577,9.9577 0 0,0 -3.1865,6.5052 A 1.4281,1.4281 0 0,0 3.4289,13.4299 l 7.8548,0 l 0,4.9985 a 2.8563,2.8563 0 0,0 5.7126,0 a 0.7141,0.7141 0 0,0 -1.4281,0 a 1.4281,1.4281 0 0,1 -2.8563,0 L 12.7118,13.4299 l 7.8548,0 a 1.4281,1.4281 0 0,0 1.4281,-1.5504 Z M 3.4289,12.0018 l 0,0 A 8.6072,8.6072 0 0,1 17.8353,6.4249 A 8.5082,8.5082 0 0,1 20.5666,12.0018 Z" fill="#000000" stroke="#000000" stroke-width="0.45" stroke-linecap="round" stroke-linejoin="round" vector-effect="non-scaling-stroke" paint-order="stroke fill" />
</svg>
