<svg xmlns="http://www.w3.org/2000/svg" viewBox="0 0 24 24" width="24" height="24" aria-labelledby="uni-title" role="img">
  <title>Uni</title>
  <path d="M 21.4739,5.4964 l -9.2307,-3.0769 a 0.7692,0.7692 0 0,0 -0.4865,0 l -9.2307,3.0769 A 0.7692,0.7692 0 0,0 2,6.2262 l 0,7.6922 a 0.7692,0.7692 0 0,0 1.5384,0 L 3.5384,7.2935 L 6.7682,8.3695 a 6.1538,6.1538 0 0,0 1.9856,8.4663 c -1.7308,0.6788 -3.2269,1.9067 -4.3211,3.5855 a 0.7692,0.7692 0 1,0 1.2885,0.8404 C 7.1701,19.0386 9.4586,17.7646 11.9999,17.7646 s 4.8298,1.274 6.2788,3.4971 a 0.7692,0.7692 0 0,0 1.2885,-0.8404 c -1.0942,-1.6788 -2.5961,-2.9067 -4.3211,-3.5855 a 6.1538,6.1538 0 0,0 1.9856,-8.4615 l 4.2423,-1.4134 a 0.7692,0.7692 0 0,0 0,-1.4596 Z M 16.6153,11.6108 A 4.6154,4.6154 0 1,1 8.2836,8.8753 l 3.473,1.1538 a 0.7692,0.7692 0 0,0 0.4865,0 l 3.473,-1.1538 A 4.6048,4.6048 0 0,1 16.6153,11.6108 Z M 11.9999,8.4926 L 5.2019,6.2262 L 11.9999,3.9599 L 18.7979,6.2262 Z" fill="#000000" stroke="#000000" stroke-width="0.45" stroke-linecap="round" stroke-linejoin="round" vector-effect="non-scaling-stroke" paint-order="stroke fill" />
</svg>
