<svg xmlns="http://www.w3.org/2000/svg" viewBox="0 0 24 24" width="24" height="24" aria-labelledby="villa_lido-title" role="img">
  <title>Villa Lido</title>
  <path d="M 21.9584,7.8654 L 21.9584,6.1071 l -3.74,-3.0602 l -4.8491,0 L 12,2 L 10.6307,3.0468 L 5.7816,3.0468 L 2.0416,6.1071 l 0,1.7584 l 0.6425,0 l 0,9.6372 l -0.6425,0 l 0,4.4974 l 19.9169,0 l 0,-4.4974 l -0.6425,0 l 0,-9.6372 L 21.9584,7.8654 z M 17.9887,3.6893 l 1.1781,0.9637 l -2.027,0 l 0,0.6425 l 2.8121,0 l 0.7854,0.6425 l -3.5874,0 l -2.9406,-2.2487 L 17.9887,3.6893 z M 17.1398,16.2177 l 0,-5.7823 l 0.6425,0 l 0,-1.6062 l 0,-0.3212 l 0,-0.6425 l 2.8912,0 l 0,9.6372 l -2.8912,0 l 0,-1.285 L 17.1398,16.2177 z M 15.2124,9.7929 l 0,-0.6425 l 1.9274,0 l 0,0.6425 L 15.2124,9.7929 z M 16.4974,10.4354 l 0,5.7823 l -0.6425,0 l 0,-5.7823 L 16.4974,10.4354 z M 12,2.8087 l 5.1398,3.9304 l 0,1.7688 l -1.9274,0 L 15.2124,7.066 l -3.2124,-2.4984 l -3.2124,2.4984 l 0,1.4424 l -1.9274,0 l 0,-1.7688 L 12,2.8087 z M 10.0726,13.0053 l 0,4.4974 l -0.6425,0 l 0,-1.285 l -0.6425,0 l 0,-5.7823 l 0.6425,0 l 0,-1.6062 l 0,-0.3212 l 0,-1.128 l 2.5699,-1.9989 l 2.5699,1.9989 l 0,1.128 l 0,0.3212 l 0,1.6062 l 0.6425,0 l 0,5.7823 l -0.6425,0 l 0,1.285 l -0.6425,0 l 0,-4.4974 L 10.0726,13.0053 z M 13.285,13.6478 l 0,3.8549 l -2.5699,0 l 0,-3.8549 L 13.285,13.6478 z M 6.8602,10.4354 l 0,5.7823 l -0.6425,0 l 0,1.285 l -2.8912,0 l 0,-9.6372 l 2.8912,0 l 0,0.6425 l 0,0.3212 l 0,1.6062 L 6.8602,10.4354 z M 6.8602,16.8602 l 1.9274,0 l 0,0.6425 l -1.9274,0 L 6.8602,16.8602 z M 7.5026,16.2177 l 0,-5.7823 l 0.6425,0 l 0,5.7823 L 7.5026,16.2177 z M 6.8602,9.7929 l 0,-0.6425 l 1.9274,0 l 0,0.6425 L 6.8602,9.7929 z M 4.0477,5.2955 l 2.8121,0 l 0,-0.6425 l -2.027,0 l 1.1781,-0.9637 l 3.7798,0 l -2.9406,2.2487 L 3.2623,5.938 L 4.0477,5.2955 z M 2.684,6.5805 l 3.5336,0 l 0,0.6425 l -3.5336,0 L 2.684,6.5805 z M 8.1451,21.3575 l -5.4611,0 l 0,-3.2124 l 5.4611,0 L 8.1451,21.3575 z M 15.2124,21.3575 l -6.4248,0 l 0,-0.6425 l 6.4248,0 L 15.2124,21.3575 z M 15.2124,20.0726 l -6.4248,0 l 0,-0.6425 l 6.4248,0 L 15.2124,20.0726 z M 15.2124,18.7876 l -6.4248,0 l 0,-0.6425 l 6.4248,0 L 15.2124,18.7876 z M 15.2124,16.8602 l 1.9274,0 l 0,0.6425 l -1.9274,0 L 15.2124,16.8602 z M 21.316,21.3575 l -5.4611,0 l 0,-3.2124 l 5.4611,0 L 21.316,21.3575 z M 17.7823,7.223 l 0,-0.6425 l 3.5336,0 l 0,0.6425 L 17.7823,7.223 z" fill="#000000" stroke="#000000" stroke-width="0.45" stroke-linecap="round" stroke-linejoin="round" vector-effect="non-scaling-stroke" paint-order="stroke fill" />
  <path d="M 13.9274,7.5442 l -3.8549,0 l 0,3.8549 l 3.8549,0 L 13.9274,7.5442 z M 11.6788,10.7566 l -0.9637,0 l 0,-0.9637 l 0.9637,0 L 11.6788,10.7566 z M 11.6788,9.1504 l -0.9637,0 l 0,-0.9637 l 0.9637,0 L 11.6788,9.1504 z M 13.285,10.7566 l -0.9637,0 l 0,-0.9637 l 0.9637,0 L 13.285,10.7566 z M 13.285,9.1504 l -0.9637,0 l 0,-0.9637 l 0.9637,0 L 13.285,9.1504 z" fill="#000000" stroke="#000000" stroke-width="0.45" stroke-linecap="round" stroke-linejoin="round" vector-effect="non-scaling-stroke" paint-order="stroke fill" />
  <path d="M 20.031,11.0778 l -2.2487,0 l 0,3.8549 l 2.2487,0 L 20.031,11.0778 z M 19.3885,14.2902 l -0.9637,0 l 0,-2.5699 l 0.9637,0 L 19.3885,14.2902 z" fill="#000000" stroke="#000000" stroke-width="0.45" stroke-linecap="round" stroke-linejoin="round" vector-effect="non-scaling-stroke" paint-order="stroke fill" />
  <path d="M 3.969,14.9327 l 2.2487,0 l 0,-3.8549 l -2.2487,0 L 3.969,14.9327 z M 4.6115,11.7203 l 0.9637,0 l 0,2.5699 l -0.9637,0 L 4.6115,11.7203 z" fill="#000000" stroke="#000000" stroke-width="0.45" stroke-linecap="round" stroke-linejoin="round" vector-effect="non-scaling-stroke" paint-order="stroke fill" />
</svg>
