<svg xmlns="http://www.w3.org/2000/svg" viewBox="0 0 24 24" width="24" height="24" aria-labelledby="westbahnhof-title" role="img">
  <title>Westbahnhof</title>
  <path d="M 22,9.5 L 22,21.1667 a 0.8333,0.8333 0 0,1 -1.6667,0 L 20.3333,9.5 a 5.8396,5.8396 0 0,0 -5.8333,-5.8333 L 9.5,3.6667 A 5.8396,5.8396 0 0,0 3.6667,9.5 L 3.6667,21.1667 a 0.8333,0.8333 0 0,1 -1.6667,0 L 2,9.5 a 7.5083,7.5083 0 0,1 7.5,-7.5 l 5,0 A 7.5083,7.5083 0 0,1 22,9.5 Z M 17.8333,9.5 l 0,7.5 a 2.5,2.5 0 0,1 -2.0094,2.451 l 0.2552,0.5094 a 0.8339,0.8339 0 0,1 -1.4917,0.7458 L 13.9854,19.5 L 10.0146,19.5 l -0.6021,1.2063 a 0.8339,0.8339 0 0,1 -1.4917,-0.7458 l 0.2552,-0.5094 A 2.5,2.5 0 0,1 6.1667,17 L 6.1667,9.5 A 2.5,2.5 0 0,1 8.6667,7 l 6.6667,0 A 2.5,2.5 0 0,1 17.8333,9.5 Z M 7.8333,9.5 l 0,5 l 8.3333,0 L 16.1667,9.5 a 0.8333,0.8333 0 0,0 -0.8333,-0.8333 L 8.6667,8.6667 A 0.8333,0.8333 0 0,0 7.8333,9.5 Z M 11.1667,16.1667 l 0,1.6667 l 1.6667,0 L 12.8333,16.1667 Z M 8.6667,17.8333 l 0.8333,0 L 9.5,16.1667 L 7.8333,16.1667 l 0,0.8333 A 0.8333,0.8333 0 0,0 8.6667,17.8333 Z M 16.1667,17 l 0,-0.8333 L 14.5,16.1667 l 0,1.6667 l 0.8333,0 A 0.8333,0.8333 0 0,0 16.1667,17 Z" fill="#000000" stroke="#000000" stroke-width="0.45" stroke-linecap="round" stroke-linejoin="round" vector-effect="non-scaling-stroke" paint-order="stroke fill" />
</svg>
